<svg xmlns="http://www.w3.org/2000/svg" xmlns:xlink="http://www.w3.org/1999/xlink" width="120" height="180" viewBox="0 0 120 180"><defs><style>.a,.m,.n{fill:none;}.b{clip-path:url(#a);}.c,.e{fill:#594fb7;}.c{stroke:#fff;}.c,.f,.j,.k{stroke-miterlimit:10;}.d{clip-path:url(#b);}.f,.h{fill:#afafd3;}.f,.j,.k,.l,.m,.n{stroke:#594fb7;}.g,.j,.k,.l,.q,.r{fill:#fff;}.g{opacity:0.2;}.i{fill:#f7a4af;}.k,.n{stroke-width:0.742px;}.l,.m,.n{stroke-linecap:round;stroke-linejoin:round;}.m{stroke-width:0.75px;}.o{fill:#f5ccd0;opacity:0.7;}.p{clip-path:url(#c);}.q{font-size:12px;font-family:Roboto-Regular, Roboto;}.s{stroke:none;}</style><clipPath id="a"><rect class="a" width="120" height="180"/></clipPath><clipPath id="b"><rect class="a" width="50.505" height="59.85" transform="translate(1796.78 278.131)"/></clipPath><clipPath id="c"><rect class="a" width="50.505" height="59.85" transform="translate(1847.22 397.831) rotate(180)"/></clipPath></defs><g class="b"><g class="c"><rect class="s" width="120" height="180" rx="10"/><rect class="a" x="0.5" y="0.5" width="119" height="179" rx="9.5"/></g><g transform="translate(-1762 -247.981)"><g class="d"><path class="e" d="M1812.34,322.43s-4.129,9.171-7.723,9.2,3.518,4.158,4.894,2.7,4.664-10.65,4.664-10.65Z"/><path class="f" d="M1836.227,338.388s.417-1.759-1.239-7.418a21.4,21.4,0,0,0-5.473-9.1h-15.036a21.408,21.408,0,0,0-5.472,9.1c-1.657,5.659-1.239,7.418-1.239,7.418"/><path class="g" d="M1815.841,338.388a23.711,23.711,0,0,0,.038-8.231,13.806,13.806,0,0,0-3.974-6.932h7.3a15.742,15.742,0,0,1,.994,7.418,31.145,31.145,0,0,1-1.642,7.745Z"/><path class="g" d="M1828.154,338.388a23.686,23.686,0,0,1-.038-8.231,13.8,13.8,0,0,1,3.973-6.932h-7.3a15.758,15.758,0,0,0-.994,7.418,31.2,31.2,0,0,0,1.642,7.745Z"/><path class="h" d="M1818.622,283.6c-6.585.688-9.952,2.494-10.916,3.1,1.5,3.013,3.564,8.948,3.564,8.948l15.083-1.61s1.762-6.265,2.495-9.238C1827.954,284.259,1825.032,282.935,1818.622,283.6Z"/><path class="i" d="M1828.848,284.8a12.043,12.043,0,0,0,.315-1.486c.017-1.491-4.474-3.326-10.495-2.638-8.9,1.017-12.916,2.638-11.425,5.161.145.246.3.538.463.863.964-.6,4.331-2.407,10.916-3.1C1825.032,282.935,1827.954,284.259,1828.848,284.8Z"/><ellipse class="j" cx="1.529" cy="2.055" rx="1.529" ry="2.055" transform="translate(1831.988 329.051) rotate(-81.044)"/><path class="e" d="M1831.151,319.73a24.033,24.033,0,0,1,1.376,3.517c.153.918,1.147,1.683-1.376,2.371s-12.77,1.147-16.1,0-4.4-2.753-3.785-3.518,2.217-2.37,2.217-2.37Z"/><path class="k" d="M1836.059,308.413a3.823,3.823,0,1,0-1.7-5.132"/><ellipse class="j" cx="18.352" cy="15.293" rx="18.352" ry="15.293" transform="translate(1803.164 292.126)"/><path class="l" d="M1805.868,311.193a3.824,3.824,0,1,1,0-5.407"/><path class="m" d="M1817.344,294.928a9.716,9.716,0,0,1,6.352-.943,2.889,2.889,0,0,1,2.159,1.674c.576,1.462-.653,2.946-1.988,3.42-1.733.614-4.057-1.292-2.789-3.073a1.29,1.29,0,0,1,2.123.127"/><circle class="e" cx="1.893" cy="1.893" r="1.893" transform="translate(1811.27 302.754)"/><circle class="e" cx="1.893" cy="1.893" r="1.893" transform="translate(1828.073 301.779)"/><path class="i" d="M1837.937,319.82l-2.949,11.15,10.029-4.273a.651.651,0,0,0,.2-1.062l-6.2-6.112A.65.65,0,0,0,1837.937,319.82Z"/><path class="n" d="M1818.687,312.313s.578,3.378,4.741,2.966c2.927-.29,2.905-3.807,2.905-3.807"/><circle class="j" cx="2.844" cy="2.844" r="2.844" transform="translate(1833.423 328.083)"/><ellipse class="o" cx="3.004" cy="2.271" rx="3.004" ry="2.271" transform="translate(1810.477 309.24)"/><ellipse class="o" cx="3.004" cy="2.271" rx="3.004" ry="2.271" transform="translate(1828.977 307.327)"/></g><g class="p"><path class="e" d="M1831.66,353.532s4.129-9.171,7.723-9.2-3.518-4.158-4.894-2.7-4.664,10.65-4.664,10.65Z"/><path class="f" d="M1807.773,337.574s-.417,1.759,1.239,7.418a21.4,21.4,0,0,0,5.473,9.1h15.036a21.408,21.408,0,0,0,5.472-9.1c1.657-5.659,1.239-7.418,1.239-7.418"/><path class="g" d="M1828.159,337.574a23.711,23.711,0,0,0-.038,8.231,13.806,13.806,0,0,0,3.974,6.932h-7.3a15.742,15.742,0,0,1-.994-7.418,31.145,31.145,0,0,1,1.642-7.745Z"/><path class="g" d="M1815.846,337.574a23.686,23.686,0,0,1,.038,8.231,13.8,13.8,0,0,1-3.973,6.932h7.3a15.758,15.758,0,0,0,.994-7.418,31.2,31.2,0,0,0-1.642-7.745Z"/><path class="h" d="M1825.378,392.358c6.585-.688,9.952-2.494,10.916-3.1-1.5-3.013-3.564-8.948-3.564-8.948l-15.083,1.61s-1.762,6.265-2.495,9.238C1816.046,391.7,1818.968,393.027,1825.378,392.358Z"/><path class="i" d="M1815.152,391.163a12.043,12.043,0,0,0-.315,1.486c-.017,1.491,4.474,3.326,10.495,2.638,8.9-1.017,12.916-2.638,11.425-5.161-.145-.246-.3-.538-.463-.863-.964.6-4.331,2.407-10.916,3.1C1818.968,393.027,1816.046,391.7,1815.152,391.163Z"/><ellipse class="j" cx="1.529" cy="2.055" rx="1.529" ry="2.055" transform="translate(1807.477 349.291) rotate(-81.044)"/><path class="e" d="M1812.849,356.232a24.034,24.034,0,0,1-1.376-3.517c-.153-.918-1.147-1.683,1.376-2.371s12.77-1.147,16.1,0,4.4,2.753,3.785,3.518-2.217,2.37-2.217,2.37Z"/><path class="k" d="M1807.941,367.549a3.823,3.823,0,1,0,1.7,5.132"/><ellipse class="j" cx="18.352" cy="15.293" rx="18.352" ry="15.293" transform="translate(1804.132 353.25)"/><path class="l" d="M1838.132,364.769a3.823,3.823,0,1,1,0,5.407"/><path class="m" d="M1826.656,381.034a9.716,9.716,0,0,1-6.352.943,2.889,2.889,0,0,1-2.159-1.674c-.576-1.462.653-2.946,1.988-3.42,1.733-.614,4.057,1.292,2.789,3.073a1.29,1.29,0,0,1-2.123-.127"/><circle class="e" cx="1.893" cy="1.893" r="1.893" transform="translate(1828.945 369.423)"/><circle class="e" cx="1.893" cy="1.893" r="1.893" transform="translate(1812.142 370.398)"/><path class="i" d="M1806.063,356.142l2.949-11.15-10.029,4.273a.651.651,0,0,0-.2,1.062l6.2,6.112A.65.65,0,0,0,1806.063,356.142Z"/><path class="n" d="M1825.313,363.649s-.578-3.378-4.741-2.966c-2.927.29-2.905,3.808-2.905,3.808"/><circle class="j" cx="2.844" cy="2.844" r="2.844" transform="translate(1804.89 342.192)"/><ellipse class="o" cx="3.004" cy="2.271" rx="3.004" ry="2.271" transform="translate(1827.515 362.181)"/><ellipse class="o" cx="3.004" cy="2.271" rx="3.004" ry="2.271" transform="translate(1809.015 364.094)"/></g></g><g transform="translate(-1762 -247.981)"><text class="q" transform="translate(1863.938 284.297)"><tspan x="-3.762" y="0">K</tspan></text><path class="r" d="M1867.226,263.923c-.095,0-.189.006-.282.013a2.978,2.978,0,0,0,.282-1.263,3.293,3.293,0,0,0-6.577,0,2.978,2.978,0,0,0,.282,1.263c-.093-.007-.187-.013-.282-.013a3.13,3.13,0,1,0,0,6.252,3.351,3.351,0,0,0,2.443-1.039,4.677,4.677,0,0,1-1.414,2.281l-.233.207a.156.156,0,0,0,.113.27h4.759a.156.156,0,0,0,.113-.27l-.233-.207a4.677,4.677,0,0,1-1.414-2.281,3.351,3.351,0,0,0,2.443,1.039,3.13,3.13,0,1,0,0-6.252Z"/><text class="q" transform="translate(1780.063 391.665) rotate(180)"><tspan x="-3.762" y="0">K</tspan></text><path class="r" d="M1776.774,412.039c.095,0,.189-.006.282-.013a2.979,2.979,0,0,0-.282,1.264,3.293,3.293,0,0,0,6.577,0,2.979,2.979,0,0,0-.282-1.264c.093.007.187.013.282.013a3.13,3.13,0,1,0,0-6.252,3.355,3.355,0,0,0-2.443,1.039,4.677,4.677,0,0,1,1.414-2.281l.233-.207a.156.156,0,0,0-.113-.27h-4.759a.156.156,0,0,0-.113.27l.233.207a4.677,4.677,0,0,1,1.414,2.281,3.355,3.355,0,0,0-2.443-1.039,3.13,3.13,0,1,0,0,6.252Z"/></g><path class="g" d="M1872,247.981H1772a10,10,0,0,0-10,10v99.763l120-38.849V257.981A10,10,0,0,0,1872,247.981Z" transform="translate(-1762 -247.981)"/></g></svg>