<svg xmlns="http://www.w3.org/2000/svg" xmlns:xlink="http://www.w3.org/1999/xlink" width="120" height="180" viewBox="0 0 120 180"><defs><style>.a{fill:none;}.b{clip-path:url(#a);}.c{fill:#594fb7;stroke:#fff;stroke-miterlimit:10;}.d,.e,.f{fill:#fff;}.d{opacity:0.2;}.e{font-size:12px;font-family:Roboto-Regular, Roboto;}.g{stroke:none;}</style><clipPath id="a"><rect class="a" width="120" height="180"/></clipPath></defs><g class="b"><g class="c"><rect class="g" width="120" height="180" rx="10"/><rect class="a" x="0.5" y="0.5" width="119" height="179" rx="9.5"/></g><path class="d" d="M1147,247.981H1047a10,10,0,0,0-10,10v99.763l120-38.849V257.981A10,10,0,0,0,1147,247.981Z" transform="translate(-1037 -247.981)"/><g transform="translate(-1037 -247.981)"><text class="e" transform="translate(1138.938 284.297)"><tspan x="-3.369" y="0">8</tspan></text><path class="f" d="M1142.226,263.923c-.095,0-.189.006-.282.013a2.978,2.978,0,0,0,.282-1.263,3.293,3.293,0,0,0-6.577,0,2.978,2.978,0,0,0,.282,1.263c-.093-.007-.187-.013-.282-.013a3.13,3.13,0,1,0,0,6.252,3.351,3.351,0,0,0,2.443-1.039,4.677,4.677,0,0,1-1.414,2.281l-.233.207a.156.156,0,0,0,.113.27h4.759a.156.156,0,0,0,.113-.27l-.233-.207a4.677,4.677,0,0,1-1.414-2.281,3.351,3.351,0,0,0,2.443,1.039,3.13,3.13,0,1,0,0-6.252Z"/><text class="e" transform="translate(1055.063 391.665) rotate(180)"><tspan x="-3.369" y="0">8</tspan></text><path class="f" d="M1051.774,412.039c.095,0,.189-.006.282-.013a2.979,2.979,0,0,0-.282,1.264,3.293,3.293,0,0,0,6.577,0,2.979,2.979,0,0,0-.282-1.264c.093.007.187.013.282.013a3.13,3.13,0,1,0,0-6.252,3.355,3.355,0,0,0-2.443,1.039,4.677,4.677,0,0,1,1.414-2.281l.233-.207a.156.156,0,0,0-.113-.27h-4.759a.156.156,0,0,0-.113.27l.233.207a4.677,4.677,0,0,1,1.414,2.281,3.355,3.355,0,0,0-2.443-1.039,3.13,3.13,0,1,0,0,6.252Z"/></g><g transform="translate(-1037 -247.981)"><path class="f" d="M1083.267,284.949c-.143,0-.284.009-.424.021a4.464,4.464,0,0,0,.424-1.9,4.94,4.94,0,0,0-9.867,0,4.464,4.464,0,0,0,.424,1.9c-.14-.012-.281-.021-.424-.021a4.7,4.7,0,1,0,0,9.378,5.027,5.027,0,0,0,3.665-1.558,7.009,7.009,0,0,1-2.121,3.421l-.349.311a.233.233,0,0,0,.169.4h7.139a.233.233,0,0,0,.169-.4l-.349-.311a7,7,0,0,1-2.121-3.421,5.028,5.028,0,0,0,3.665,1.558,4.7,4.7,0,1,0,0-9.378Z"/><path class="f" d="M1083.267,318.506c-.143,0-.284.009-.424.021a4.464,4.464,0,0,0,.424-1.9,4.94,4.94,0,0,0-9.867,0,4.464,4.464,0,0,0,.424,1.9c-.14-.012-.281-.021-.424-.021a4.7,4.7,0,1,0,0,9.378,5.027,5.027,0,0,0,3.665-1.558,7.009,7.009,0,0,1-2.121,3.421l-.349.311a.233.233,0,0,0,.169.4h7.139a.233.233,0,0,0,.169-.4l-.349-.311a7,7,0,0,1-2.121-3.421,5.027,5.027,0,0,0,3.665,1.558,4.7,4.7,0,1,0,0-9.378Z"/><path class="f" d="M1083.267,352.063c-.143,0-.284.009-.424.021a4.468,4.468,0,0,0,.424-1.9,4.94,4.94,0,0,0-9.867,0,4.468,4.468,0,0,0,.424,1.9c-.14-.012-.281-.021-.424-.021a4.7,4.7,0,1,0,0,9.378,5.027,5.027,0,0,0,3.665-1.558,7.009,7.009,0,0,1-2.121,3.421l-.349.311a.233.233,0,0,0,.169.4h7.139a.233.233,0,0,0,.169-.4l-.349-.311a7,7,0,0,1-2.121-3.421,5.027,5.027,0,0,0,3.665,1.558,4.7,4.7,0,1,0,0-9.378Z"/><path class="f" d="M1083.267,385.62c-.143,0-.284.009-.424.021a4.468,4.468,0,0,0,.424-1.9,4.94,4.94,0,0,0-9.867,0,4.468,4.468,0,0,0,.424,1.9c-.14-.012-.281-.021-.424-.021a4.7,4.7,0,1,0,0,9.378,5.027,5.027,0,0,0,3.665-1.558,7.009,7.009,0,0,1-2.121,3.421l-.349.311a.233.233,0,0,0,.169.4h7.139a.233.233,0,0,0,.169-.4l-.349-.311a7,7,0,0,1-2.121-3.421,5.028,5.028,0,0,0,3.665,1.558,4.7,4.7,0,1,0,0-9.378Z"/><path class="f" d="M1120.6,284.949c-.143,0-.284.009-.424.021a4.464,4.464,0,0,0,.424-1.9,4.94,4.94,0,0,0-9.867,0,4.464,4.464,0,0,0,.424,1.9c-.14-.012-.281-.021-.424-.021a4.7,4.7,0,1,0,0,9.378,5.028,5.028,0,0,0,3.665-1.558,7,7,0,0,1-2.121,3.421l-.349.311a.233.233,0,0,0,.169.4h7.139a.233.233,0,0,0,.169-.4l-.349-.311a7.009,7.009,0,0,1-2.121-3.421,5.027,5.027,0,0,0,3.665,1.558,4.7,4.7,0,1,0,0-9.378Z"/><path class="f" d="M1120.6,318.506c-.143,0-.284.009-.424.021a4.464,4.464,0,0,0,.424-1.9,4.94,4.94,0,0,0-9.867,0,4.464,4.464,0,0,0,.424,1.9c-.14-.012-.281-.021-.424-.021a4.7,4.7,0,1,0,0,9.378,5.027,5.027,0,0,0,3.665-1.558,7,7,0,0,1-2.121,3.421l-.349.311a.233.233,0,0,0,.169.4h7.139a.233.233,0,0,0,.169-.4l-.349-.311a7.009,7.009,0,0,1-2.121-3.421,5.027,5.027,0,0,0,3.665,1.558,4.7,4.7,0,1,0,0-9.378Z"/><path class="f" d="M1120.6,352.063c-.143,0-.284.009-.424.021a4.468,4.468,0,0,0,.424-1.9,4.94,4.94,0,0,0-9.867,0,4.468,4.468,0,0,0,.424,1.9c-.14-.012-.281-.021-.424-.021a4.7,4.7,0,1,0,0,9.378,5.027,5.027,0,0,0,3.665-1.558,7,7,0,0,1-2.121,3.421l-.349.311a.233.233,0,0,0,.169.4h7.139a.233.233,0,0,0,.169-.4l-.349-.311a7.009,7.009,0,0,1-2.121-3.421,5.027,5.027,0,0,0,3.665,1.558,4.7,4.7,0,1,0,0-9.378Z"/><path class="f" d="M1120.6,385.62c-.143,0-.284.009-.424.021a4.468,4.468,0,0,0,.424-1.9,4.94,4.94,0,0,0-9.867,0,4.468,4.468,0,0,0,.424,1.9c-.14-.012-.281-.021-.424-.021a4.7,4.7,0,1,0,0,9.378,5.028,5.028,0,0,0,3.665-1.558,7,7,0,0,1-2.121,3.421l-.349.311a.233.233,0,0,0,.169.4h7.139a.233.233,0,0,0,.169-.4l-.349-.311a7.009,7.009,0,0,1-2.121-3.421A5.027,5.027,0,0,0,1120.6,395a4.7,4.7,0,1,0,0-9.378Z"/></g></g></svg>