<svg xmlns="http://www.w3.org/2000/svg" xmlns:xlink="http://www.w3.org/1999/xlink" width="120" height="180" viewBox="0 0 120 180"><defs><style>.a{fill:none;}.b{clip-path:url(#a);}.c{fill:#594fb7;stroke:#fff;stroke-miterlimit:10;}.d,.e,.f{fill:#fff;}.e{opacity:0.2;}.f{font-size:12px;font-family:Roboto-Regular, Roboto;}.g{stroke:none;}</style><clipPath id="a"><rect class="a" width="120" height="180"/></clipPath></defs><g class="b"><g class="c"><rect class="g" width="120" height="180" rx="10"/><rect class="a" x="0.5" y="0.5" width="119" height="179" rx="9.5"/></g><g transform="translate(-22 -247.981)"><path class="d" d="M90.332,333.427c-.242,0-.479.016-.715.035a7.565,7.565,0,0,0,.715-3.2,8.343,8.343,0,0,0-16.664,0,7.565,7.565,0,0,0,.715,3.2c-.236-.019-.473-.035-.715-.035a7.93,7.93,0,1,0,0,15.839,8.5,8.5,0,0,0,6.19-2.631,11.838,11.838,0,0,1-3.582,5.777l-.59.525a.394.394,0,0,0,.285.685H88.029a.394.394,0,0,0,.285-.685l-.59-.525a11.838,11.838,0,0,1-3.582-5.777,8.5,8.5,0,0,0,6.19,2.631,7.93,7.93,0,1,0,0-15.839Z"/></g><path class="e" d="M132,247.981H32a10,10,0,0,0-10,10v99.763l120-38.849V257.981A10,10,0,0,0,132,247.981Z" transform="translate(-22 -247.981)"/><g transform="translate(-22 -247.981)"><text class="f" transform="translate(123.938 284.297)"><tspan x="-3.914" y="0">A</tspan></text><path class="d" d="M127.226,263.923c-.1,0-.189.006-.282.013a2.979,2.979,0,0,0,.282-1.263,3.293,3.293,0,0,0-6.577,0,2.979,2.979,0,0,0,.282,1.263c-.093-.007-.187-.013-.282-.013a3.13,3.13,0,1,0,0,6.252,3.35,3.35,0,0,0,2.443-1.039,4.677,4.677,0,0,1-1.414,2.281l-.233.207a.155.155,0,0,0,.113.27h4.759a.155.155,0,0,0,.113-.27l-.233-.207a4.677,4.677,0,0,1-1.414-2.281,3.35,3.35,0,0,0,2.443,1.039,3.13,3.13,0,1,0,0-6.252Z"/><text class="f" transform="translate(40.063 391.665) rotate(180)"><tspan x="-3.914" y="0">A</tspan></text><path class="d" d="M36.774,412.039c.1,0,.189-.006.282-.013a2.98,2.98,0,0,0-.282,1.264,3.293,3.293,0,0,0,6.577,0,2.98,2.98,0,0,0-.282-1.264c.093.007.187.013.282.013a3.13,3.13,0,1,0,0-6.252,3.354,3.354,0,0,0-2.443,1.039,4.677,4.677,0,0,1,1.414-2.281l.233-.207a.155.155,0,0,0-.113-.27H37.683a.155.155,0,0,0-.113.27l.233.207a4.677,4.677,0,0,1,1.414,2.281,3.354,3.354,0,0,0-2.443-1.039,3.13,3.13,0,1,0,0,6.252Z"/></g></g></svg>