<svg xmlns="http://www.w3.org/2000/svg" xmlns:xlink="http://www.w3.org/1999/xlink" width="120" height="180" viewBox="0 0 120 180"><defs><style>.a{fill:none;}.b{clip-path:url(#a);}.c{fill:#594fb7;stroke:#fff;stroke-miterlimit:10;}.d,.e,.f{fill:#fff;}.d{opacity:0.2;}.e{font-size:12px;font-family:Roboto-Regular, Roboto;}.g{stroke:none;}</style><clipPath id="a"><rect class="a" width="120" height="180"/></clipPath></defs><g class="b"><g class="c"><rect class="g" width="120" height="180" rx="10"/><rect class="a" x="0.5" y="0.5" width="119" height="179" rx="9.5"/></g><path class="d" d="M422,247.981H322a10,10,0,0,0-10,10v99.763l120-38.849V257.981A10,10,0,0,0,422,247.981Z" transform="translate(-312 -247.981)"/><g transform="translate(-312 -247.981)"><text class="e" transform="translate(413.938 284.297)"><tspan x="-3.369" y="0">3</tspan></text><path class="f" d="M417.226,263.923c-.1,0-.189.006-.282.013a2.979,2.979,0,0,0,.282-1.263,3.293,3.293,0,0,0-6.577,0,2.979,2.979,0,0,0,.282,1.263c-.093-.007-.187-.013-.282-.013a3.13,3.13,0,1,0,0,6.252,3.351,3.351,0,0,0,2.443-1.039,4.677,4.677,0,0,1-1.414,2.281l-.233.207a.155.155,0,0,0,.113.27h4.759a.155.155,0,0,0,.113-.27l-.233-.207a4.677,4.677,0,0,1-1.414-2.281,3.351,3.351,0,0,0,2.443,1.039,3.13,3.13,0,1,0,0-6.252Z"/><text class="e" transform="translate(330.063 391.665) rotate(180)"><tspan x="-3.369" y="0">3</tspan></text><path class="f" d="M326.774,412.039c.1,0,.189-.006.282-.013a2.98,2.98,0,0,0-.282,1.264,3.293,3.293,0,0,0,6.577,0,2.98,2.98,0,0,0-.282-1.264c.093.007.187.013.282.013a3.13,3.13,0,1,0,0-6.252,3.355,3.355,0,0,0-2.443,1.039,4.677,4.677,0,0,1,1.414-2.281l.233-.207a.155.155,0,0,0-.113-.27h-4.759a.155.155,0,0,0-.113.27l.233.207a4.677,4.677,0,0,1,1.414,2.281,3.355,3.355,0,0,0-2.443-1.039,3.13,3.13,0,1,0,0,6.252Z"/></g><g transform="translate(-312 -247.981)"><path class="f" d="M376.933,301.2c-.143,0-.283.009-.423.021a4.479,4.479,0,0,0,.423-1.9,4.939,4.939,0,0,0-9.866,0,4.479,4.479,0,0,0,.423,1.9c-.14-.012-.28-.021-.423-.021a4.7,4.7,0,1,0,0,9.378,5.029,5.029,0,0,0,3.665-1.558,7.01,7.01,0,0,1-2.121,3.421l-.349.311a.233.233,0,0,0,.168.4h7.14a.233.233,0,0,0,.168-.4l-.349-.311a7.01,7.01,0,0,1-2.121-3.421,5.029,5.029,0,0,0,3.665,1.558,4.7,4.7,0,1,0,0-9.378Z"/><path class="f" d="M376.933,335.285c-.143,0-.283.009-.423.02a4.475,4.475,0,0,0,.423-1.9,4.939,4.939,0,0,0-9.866,0,4.475,4.475,0,0,0,.423,1.9c-.14-.011-.28-.02-.423-.02a4.7,4.7,0,1,0,0,9.378,5.033,5.033,0,0,0,3.665-1.558,7.015,7.015,0,0,1-2.121,3.421l-.349.31a.233.233,0,0,0,.168.406h7.14a.233.233,0,0,0,.168-.406l-.349-.31a7.015,7.015,0,0,1-2.121-3.421,5.033,5.033,0,0,0,3.665,1.558,4.7,4.7,0,1,0,0-9.378Z"/><path class="f" d="M376.933,369.37c-.143,0-.283.009-.423.021a4.482,4.482,0,0,0,.423-1.9,4.939,4.939,0,0,0-9.866,0,4.482,4.482,0,0,0,.423,1.9c-.14-.012-.28-.021-.423-.021a4.7,4.7,0,1,0,0,9.378,5.029,5.029,0,0,0,3.665-1.558,7.01,7.01,0,0,1-2.121,3.421l-.349.311a.233.233,0,0,0,.168.4h7.14a.233.233,0,0,0,.168-.4l-.349-.311a7.01,7.01,0,0,1-2.121-3.421,5.029,5.029,0,0,0,3.665,1.558,4.7,4.7,0,1,0,0-9.378Z"/></g></g></svg>