<svg xmlns="http://www.w3.org/2000/svg" xmlns:xlink="http://www.w3.org/1999/xlink" width="120" height="180" viewBox="0 0 120 180"><defs><style>.a{fill:none;}.b{clip-path:url(#a);}.c{fill:#f7a4af;stroke:#fff;stroke-miterlimit:10;}.d,.e,.f{fill:#fff;}.d{opacity:0.2;}.e{font-size:12px;font-family:Roboto-Regular, Roboto;}.g{stroke:none;}</style><clipPath id="a"><rect class="a" width="120" height="180"/></clipPath></defs><g class="b"><g class="c" transform="translate(0 0)"><rect class="g" width="120" height="180" rx="10"/><rect class="a" x="0.5" y="0.5" width="119" height="179" rx="9.5"/></g><path class="d" d="M712,703.943H612a10,10,0,0,0-10,10v99.763l120-38.849V713.943A10,10,0,0,0,712,703.943Z" transform="translate(-602 -703.943)"/><g transform="translate(-602 -703.943)"><text class="e" transform="translate(703.938 740.259)"><tspan x="-3.369" y="0">5</tspan></text><path class="f" d="M710.97,721.565a.161.161,0,0,1,0,.235l-.159.113a32.424,32.424,0,0,0-6.631,6.3l-.119.152a.181.181,0,0,1-.247,0l-.171-.216a32.372,32.372,0,0,0-6.649-6.288l-.089-.063a.161.161,0,0,1,0-.235l.159-.113a32.4,32.4,0,0,0,6.631-6.3l.119-.151a.181.181,0,0,1,.247,0l.066.085a32.38,32.38,0,0,0,6.616,6.32Z"/><text class="e" transform="translate(620.063 847.626) rotate(180)"><tspan x="-3.369" y="0">5</tspan></text><path class="f" d="M613.03,866.321a.161.161,0,0,1,0-.235l.159-.113a32.424,32.424,0,0,0,6.631-6.3l.119-.152a.181.181,0,0,1,.247,0l.171.216a32.372,32.372,0,0,0,6.649,6.288l.089.063a.161.161,0,0,1,0,.235l-.159.114a32.371,32.371,0,0,0-6.631,6.3l-.119.151a.181.181,0,0,1-.247,0l-.066-.085a32.38,32.38,0,0,0-6.616-6.32Z"/></g><g transform="translate(-602 -703.943)"><path class="f" d="M653.882,759.682a.239.239,0,0,1,0,.352l-.239.17a48.575,48.575,0,0,0-9.945,9.453l-.18.227a.271.271,0,0,1-.37,0l-.256-.323a48.6,48.6,0,0,0-9.974-9.433l-.134-.094a.241.241,0,0,1,0-.352l.239-.171a48.552,48.552,0,0,0,9.946-9.453l.179-.227a.272.272,0,0,1,.37,0l.1.127a48.569,48.569,0,0,0,9.924,9.48Z"/><path class="f" d="M653.882,827.853a.238.238,0,0,1,0,.351l-.239.171a48.575,48.575,0,0,0-9.945,9.453l-.18.227a.272.272,0,0,1-.37,0l-.256-.323a48.6,48.6,0,0,0-9.974-9.433l-.134-.1a.24.24,0,0,1,0-.351l.239-.171a48.552,48.552,0,0,0,9.946-9.453l.179-.227a.272.272,0,0,1,.37,0l.1.127a48.572,48.572,0,0,0,9.924,9.48Z"/><path class="f" d="M691.216,759.682a.241.241,0,0,1,0,.352l-.239.17a48.552,48.552,0,0,0-9.946,9.453l-.179.227a.271.271,0,0,1-.37,0l-.257-.323a48.57,48.57,0,0,0-9.973-9.433l-.134-.094a.239.239,0,0,1,0-.352l.239-.171a48.575,48.575,0,0,0,9.945-9.453l.18-.227a.272.272,0,0,1,.37,0l.1.127a48.537,48.537,0,0,0,9.923,9.48Z"/><path class="f" d="M691.216,827.853a.24.24,0,0,1,0,.351l-.239.171a48.552,48.552,0,0,0-9.946,9.453l-.179.227a.272.272,0,0,1-.37,0l-.257-.323a48.57,48.57,0,0,0-9.973-9.433l-.134-.1a.238.238,0,0,1,0-.351l.239-.171a48.575,48.575,0,0,0,9.945-9.453l.18-.227a.272.272,0,0,1,.37,0l.1.127a48.541,48.541,0,0,0,9.923,9.48Z"/></g><g transform="translate(-602 -703.943)"><path class="f" d="M651.451,794.119a.241.241,0,0,1,0-.352l.239-.17a48.579,48.579,0,0,0,9.946-9.453l.179-.228a.271.271,0,0,1,.37,0l.257.324a48.593,48.593,0,0,0,9.973,9.432l.134.1a.241.241,0,0,1,0,.352l-.239.17a48.583,48.583,0,0,0-9.946,9.454l-.179.227a.271.271,0,0,1-.37,0l-.1-.128a48.541,48.541,0,0,0-9.924-9.479Z"/></g></g></svg>