<svg xmlns="http://www.w3.org/2000/svg" xmlns:xlink="http://www.w3.org/1999/xlink" width="120" height="180" viewBox="0 0 120 180"><defs><style>.a{fill:none;}.b{clip-path:url(#a);}.c{fill:#f7a4af;stroke:#fff;stroke-miterlimit:10;}.d,.e,.f{fill:#fff;}.d{opacity:0.2;}.e{font-size:12px;font-family:Roboto-Regular, Roboto;}.g{stroke:none;}</style><clipPath id="a"><rect class="a" width="120" height="180"/></clipPath></defs><g class="b"><g class="c" transform="translate(0 0)"><rect class="g" width="120" height="180" rx="10"/><rect class="a" x="0.5" y="0.5" width="119" height="179" rx="9.5"/></g><path class="d" d="M1147,703.943H1047a10,10,0,0,0-10,10v99.763l120-38.849V713.943A10,10,0,0,0,1147,703.943Z" transform="translate(-1037 -703.943)"/><g transform="translate(-1037 -703.943)"><text class="e" transform="translate(1138.938 740.259)"><tspan x="-3.369" y="0">8</tspan></text><path class="f" d="M1145.97,721.565a.161.161,0,0,1,0,.235l-.159.113a32.419,32.419,0,0,0-6.631,6.3l-.119.152a.181.181,0,0,1-.247,0l-.171-.216a32.373,32.373,0,0,0-6.649-6.288l-.089-.063a.161.161,0,0,1,0-.235l.159-.113a32.4,32.4,0,0,0,6.631-6.3l.119-.151a.181.181,0,0,1,.247,0l.066.085a32.381,32.381,0,0,0,6.616,6.32Z"/><text class="e" transform="translate(1055.063 847.626) rotate(180)"><tspan x="-3.369" y="0">8</tspan></text><path class="f" d="M1048.03,866.321a.161.161,0,0,1,0-.235l.159-.113a32.419,32.419,0,0,0,6.631-6.3l.119-.152a.181.181,0,0,1,.247,0l.171.216a32.373,32.373,0,0,0,6.649,6.288l.089.063a.161.161,0,0,1,0,.235l-.159.114a32.367,32.367,0,0,0-6.631,6.3l-.119.151a.181.181,0,0,1-.247,0l-.066-.085a32.381,32.381,0,0,0-6.616-6.32Z"/></g><g transform="translate(-1037 -703.943)"><path class="f" d="M1088.882,743.432a.239.239,0,0,1,0,.352l-.239.17a48.576,48.576,0,0,0-9.945,9.453l-.18.227a.271.271,0,0,1-.37,0l-.256-.323a48.6,48.6,0,0,0-9.974-9.433l-.134-.094a.241.241,0,0,1,0-.352l.239-.171a48.554,48.554,0,0,0,9.946-9.453l.179-.227a.272.272,0,0,1,.37,0l.1.127a48.566,48.566,0,0,0,9.924,9.48Z"/><path class="f" d="M1088.882,776.989a.238.238,0,0,1,0,.351l-.239.171a48.576,48.576,0,0,0-9.945,9.453l-.18.227a.271.271,0,0,1-.37,0l-.256-.323a48.6,48.6,0,0,0-9.974-9.433l-.134-.095a.239.239,0,0,1,0-.351l.239-.171a48.554,48.554,0,0,0,9.946-9.453l.179-.227a.272.272,0,0,1,.37,0l.1.127a48.567,48.567,0,0,0,9.924,9.48Z"/><path class="f" d="M1088.882,810.546a.238.238,0,0,1,0,.351l-.239.171a48.576,48.576,0,0,0-9.945,9.453l-.18.227a.272.272,0,0,1-.37,0l-.256-.323a48.6,48.6,0,0,0-9.974-9.433l-.134-.1a.239.239,0,0,1,0-.351l.239-.171a48.554,48.554,0,0,0,9.946-9.453l.179-.227a.272.272,0,0,1,.37,0l.1.127a48.567,48.567,0,0,0,9.924,9.48Z"/><path class="f" d="M1088.882,844.1a.238.238,0,0,1,0,.351l-.239.171a48.576,48.576,0,0,0-9.945,9.453l-.18.227a.272.272,0,0,1-.37,0l-.256-.323a48.6,48.6,0,0,0-9.974-9.433l-.134-.1a.239.239,0,0,1,0-.351l.239-.171a48.554,48.554,0,0,0,9.946-9.453l.179-.227a.272.272,0,0,1,.37,0l.1.127a48.569,48.569,0,0,0,9.924,9.48Z"/><path class="f" d="M1126.216,743.432a.241.241,0,0,1,0,.352l-.239.17a48.554,48.554,0,0,0-9.946,9.453l-.179.227a.271.271,0,0,1-.37,0l-.257-.323a48.57,48.57,0,0,0-9.973-9.433l-.134-.094a.239.239,0,0,1,0-.352l.239-.171a48.576,48.576,0,0,0,9.945-9.453l.18-.227a.272.272,0,0,1,.37,0l.1.127a48.536,48.536,0,0,0,9.923,9.48Z"/><path class="f" d="M1126.216,776.989a.239.239,0,0,1,0,.351l-.239.171a48.554,48.554,0,0,0-9.946,9.453l-.179.227a.271.271,0,0,1-.37,0l-.257-.323a48.57,48.57,0,0,0-9.973-9.433l-.134-.095a.238.238,0,0,1,0-.351l.239-.171a48.576,48.576,0,0,0,9.945-9.453l.18-.227a.272.272,0,0,1,.37,0l.1.127a48.537,48.537,0,0,0,9.923,9.48Z"/><path class="f" d="M1126.216,810.546a.239.239,0,0,1,0,.351l-.239.171a48.554,48.554,0,0,0-9.946,9.453l-.179.227a.272.272,0,0,1-.37,0l-.257-.323a48.57,48.57,0,0,0-9.973-9.433l-.134-.1a.238.238,0,0,1,0-.351l.239-.171a48.576,48.576,0,0,0,9.945-9.453l.18-.227a.272.272,0,0,1,.37,0l.1.127a48.537,48.537,0,0,0,9.923,9.48Z"/><path class="f" d="M1126.216,844.1a.239.239,0,0,1,0,.351l-.239.171a48.554,48.554,0,0,0-9.946,9.453l-.179.227a.272.272,0,0,1-.37,0l-.257-.323a48.57,48.57,0,0,0-9.973-9.433l-.134-.1a.238.238,0,0,1,0-.351l.239-.171a48.576,48.576,0,0,0,9.945-9.453l.18-.227a.272.272,0,0,1,.37,0l.1.127a48.539,48.539,0,0,0,9.923,9.48Z"/></g></g></svg>