<svg xmlns="http://www.w3.org/2000/svg" xmlns:xlink="http://www.w3.org/1999/xlink" width="120" height="180" viewBox="0 0 120 180"><defs><style>.a,.l,.n{fill:none;}.b{clip-path:url(#a);}.c,.f{fill:#f7a4af;}.c{stroke:#fff;}.c,.g,.h,.i,.j{stroke-miterlimit:10;}.d{clip-path:url(#b);}.e{fill:#8c84d9;}.g,.h,.m{fill:#e0ced9;}.g,.h,.i,.j,.k,.l,.m,.n{stroke:#f7a4af;}.h,.i,.l{stroke-width:0.742px;}.i,.j,.k,.q,.r,.s{fill:#fff;}.k,.l,.m,.n{stroke-linecap:round;stroke-linejoin:round;}.o{fill:#f5dddf;opacity:0.7;}.p{clip-path:url(#c);}.q{opacity:0.2;}.r{font-size:12px;font-family:Roboto-Regular, Roboto;}.t{stroke:none;}</style><clipPath id="a"><rect class="a" width="120" height="180"/></clipPath><clipPath id="b"><rect class="a" width="55.678" height="65.475" transform="translate(1648.828 728.468)"/></clipPath><clipPath id="c"><rect class="a" width="55.678" height="65.475" transform="translate(1705.172 859.418) rotate(180)"/></clipPath></defs><g class="b"><g class="c" transform="translate(0 0)"><rect class="t" width="120" height="180" rx="10"/><rect class="a" x="0.5" y="0.5" width="119" height="179" rx="9.5"/></g><g transform="translate(-1617 -703.943)"><g class="d"><path class="e" d="M1680.56,735.939c-4.293-2.112-5.726-4.3-5.726-4.3s-1.434,2.187-5.727,4.3-10,0-10,0l2.565,6.636,13.165-2.489L1688,742.575l2.564-6.636S1684.854,738.05,1680.56,735.939Z"/><path class="f" d="M1653.291,784.583c-.924-.739.321-25.372,1.723-32.166s6.127-13.449,20.924-15.032,19.495,11.634,20.189,26.234,2.406,16.084,1.484,16.975-11.647-1.731-11.647-1.731S1654.215,785.322,1653.291,784.583Z"/><path class="g" d="M1692.887,794.342s.466-1.964-1.384-8.282a23.9,23.9,0,0,0-6.111-10.158H1668.6a23.9,23.9,0,0,0-6.111,10.158c-1.85,6.318-1.384,8.282-1.384,8.282"/><path class="f" d="M1668.462,775.9s5.714,4.874,7.858,10.013a29.744,29.744,0,0,1,2.373,8.427h-6.805a13.4,13.4,0,0,0-1.357-9.2,17.384,17.384,0,0,0-4.849-5.943Z"/><path class="f" d="M1685.532,775.9s-5.713,4.874-7.858,10.013a29.746,29.746,0,0,0-2.373,8.427h6.8a13.4,13.4,0,0,1,1.357-9.2,17.382,17.382,0,0,1,4.849-5.943Z"/><path class="h" d="M1662.355,765.171l-6,2.791-.013,2.29a1.582,1.582,0,0,0-2.036.355c-.718.8-1.243,2.226-.484,3.173a2.284,2.284,0,0,0,1.932.695,2.876,2.876,0,0,0,.923-.236.625.625,0,0,0,.162.49c1.1,1.229,3.079,1.272,3.391-.648-.169,1.042.729,1.255,1.569,1.151.448-.056.853-.325,1.281-.387.691-.1.764.343,1.463.379,1.063.054,1.473-1.127,1.558-1.983Z"/><path class="h" d="M1686.078,765.651l6.617.088.95,2.084a1.58,1.58,0,0,1,2-.511c.985.439,2.046,1.522,1.742,2.7a2.285,2.285,0,0,1-1.478,1.426,2.856,2.856,0,0,1-.938.162.629.629,0,0,1,.053.514c-.505,1.574-2.288,2.422-3.36.8.582.881-.149,1.443-.959,1.692-.432.133-.911.054-1.327.172-.672.191-.556.627-1.179.946-.947.484-1.806-.425-2.234-1.171Z"/><path class="i" d="M1693.6,763.533a3.89,3.89,0,1,0-1.734-5.222"/><ellipse class="j" cx="20.493" cy="17.078" rx="20.493" ry="17.078" transform="translate(1655.966 741.306)"/><path class="k" d="M1660.545,766.829a3.891,3.891,0,1,1,0-5.5"/><circle class="f" cx="1.893" cy="1.893" r="1.893" transform="translate(1666.886 758.853)"/><circle class="f" cx="1.893" cy="1.893" r="1.893" transform="translate(1683.689 757.878)"/><path class="l" d="M1673.583,767.752s.577,3.378,4.74,2.966c2.927-.289,2.906-3.807,2.906-3.807"/><path class="g" d="M1671.34,755.239a27.514,27.514,0,0,0,6.292-4.1c.553-.5,2.43-2.709,3.3-2.215a20.557,20.557,0,0,1,1.918,1.778,18.908,18.908,0,0,0,2.6,1.7c2.405,1.319,5.131,2.348,7.207,4.181a.378.378,0,0,0,.484.092,7.519,7.519,0,0,1,2.847-.449c.63.131,1.574.562,1.929-.235a1.843,1.843,0,0,0,0-1.19c-.283-1.134-.58-2.216-.974-3.324a16.763,16.763,0,0,0-3.185-5.365,19.486,19.486,0,0,0-10.58-6.258c-8.549-1.776-18.245-.2-24.385,6.429a14.648,14.648,0,0,0-4.152,9.139c-.024.4.149,5.675.583,5.513a25.723,25.723,0,0,1,4.028-.662,25.692,25.692,0,0,0,4.031-1.615C1665.922,757.593,1668.707,756.539,1671.34,755.239Z"/><path class="m" d="M1683.452,746.589c-1.065,3.046-5.481,7.065-8.4,8.442a45.187,45.187,0,0,1-11.928,3.711,24.185,24.185,0,0,1,3.142-9.68"/><path class="f" d="M1665.932,773.463s-6.608,6.025.085,8.319c7.5,2.571,14.516-5.2,14.516-5.2Z"/><path class="f" d="M1686.344,773.618s5.946,5.421-.077,7.486c-6.75,2.313-13.055-4.009-13.055-4.009Z"/><path class="n" d="M1690.327,792.3s1.831-9.922,6.236-13.611"/><path class="e" d="M1691.6,780.715c-.35,0-.724.021-1.1,0a.936.936,0,0,1-.825-1.513,1.882,1.882,0,0,1,1.86-.973c.8.109,1.595.275,2.394.4a5,5,0,0,0,.735.005l.026-.116c-.411-.185-.811-.4-1.235-.549a5.559,5.559,0,0,1-2.4-1.457,1.7,1.7,0,0,1-.532-1.118c-.007-.536.31-.767.8-.552a9.725,9.725,0,0,1,.9.5c.134.077.263.162.449.277a8.511,8.511,0,0,1-.307-.817,1.345,1.345,0,0,1,.207-1.174.724.724,0,0,1,1.068-.247c1.063.562,1.235.823,1.493,2.22.084.46.176.919.287,1.372a6.382,6.382,0,0,0,.252.7l.106-.006c.057-.486.143-.972.163-1.461.025-.638.013-1.278-.012-1.917a1.2,1.2,0,0,1,.742-1.3,4.146,4.146,0,0,1,1.154-.261.537.537,0,0,1,.656.54,13.854,13.854,0,0,1-.054,1.492,6.025,6.025,0,0,1,.582-.438,2.382,2.382,0,0,1,.737-.333.776.776,0,0,1,.947.81,2.46,2.46,0,0,1-1.3,2.153c-.69.379-1.4.724-2.094,1.089a3.086,3.086,0,0,0-.323.225l.039.083c.2-.059.406-.105.6-.179.788-.3,1.563-.64,2.364-.9a2.187,2.187,0,0,1,2.339,1.2.536.536,0,0,1-.261.73,9.608,9.608,0,0,1-1.146.422,2.609,2.609,0,0,1-.376.062c.284.141.5.236.7.35a3.215,3.215,0,0,1,.511.338c.257.218.25.422-.03.613a2.277,2.277,0,0,1-2.374.216c-.828-.4-1.6-.915-2.4-1.381-.088-.052-.17-.115-.346-.235a1.791,1.791,0,0,0,.15.332q.7.862,1.411,1.715c.246.295.585.537.585.971a3.014,3.014,0,0,1-.4,1.741.946.946,0,0,1-1.675-.068c-.156-.288-.3-.585-.468-.925-.045.346-.064.646-.126.937-.164.77-.7.957-1.246.394a6.194,6.194,0,0,1-.874-1.248,1.149,1.149,0,0,1,.063-1.12c.231-.457.511-.89.75-1.344.2-.376.369-.767.551-1.152l-.089-.053-.464.493c-.521.544-1.024,1.106-1.567,1.628a2.9,2.9,0,0,1-2.008.748c-.632.015-.892-.45-.551-.984a3.52,3.52,0,0,1,.553-.6A4.882,4.882,0,0,1,1691.6,780.715Zm4.229-2.177-.267.226.147.291.342-.018.111-.315Z"/><ellipse class="j" cx="3.33" cy="4.056" rx="3.33" ry="4.056" transform="translate(1688.911 784.012) rotate(-18.567)"/><path class="f" d="M1655.466,750.413a32.589,32.589,0,0,1,23.268-9.979c7.7,0,16.67,7.342,16.67,7.342a13.743,13.743,0,0,0-10.375-9.611C1676.517,736.349,1658.986,740.281,1655.466,750.413Z"/><ellipse class="o" cx="2.271" cy="3.004" rx="2.271" ry="3.004" transform="matrix(0.053, -0.999, 0.999, 0.053, 1665.042, 768.287)"/><ellipse class="o" cx="2.271" cy="3.004" rx="2.271" ry="3.004" transform="matrix(0.053, -0.999, 0.999, 0.053, 1683.618, 767.359)"/></g><g class="p"><path class="e" d="M1673.44,851.947c4.293,2.112,5.726,4.3,5.726,4.3s1.434-2.187,5.727-4.3,10,0,10,0l-2.565-6.636-13.165,2.489L1666,845.311l-2.564,6.636S1669.146,849.836,1673.44,851.947Z"/><path class="f" d="M1700.709,803.3c.924.739-.321,25.372-1.723,32.166s-6.127,13.449-20.924,15.032-19.495-11.634-20.189-26.234-2.406-16.083-1.484-16.975,11.647,1.731,11.647,1.731S1699.785,802.564,1700.709,803.3Z"/><path class="g" d="M1661.113,793.544s-.466,1.964,1.384,8.282a23.9,23.9,0,0,0,6.111,10.158h16.79a23.9,23.9,0,0,0,6.111-10.158c1.85-6.318,1.384-8.282,1.384-8.282"/><path class="f" d="M1685.538,811.984s-5.714-4.874-7.858-10.013a29.744,29.744,0,0,1-2.373-8.427h6.805a13.4,13.4,0,0,0,1.357,9.205,17.384,17.384,0,0,0,4.849,5.943Z"/><path class="f" d="M1668.468,811.984s5.713-4.874,7.858-10.013a29.746,29.746,0,0,0,2.373-8.427h-6.8a13.4,13.4,0,0,1-1.357,9.205,17.383,17.383,0,0,1-4.849,5.943Z"/><path class="h" d="M1691.645,822.715l6-2.791.013-2.29a1.582,1.582,0,0,0,2.036-.355c.718-.8,1.243-2.226.484-3.173a2.284,2.284,0,0,0-1.932-.7,2.876,2.876,0,0,0-.923.236.627.627,0,0,0-.162-.49c-1.1-1.228-3.079-1.272-3.391.648.169-1.042-.729-1.255-1.569-1.151-.448.056-.853.325-1.281.388-.691.1-.764-.344-1.463-.38-1.063-.054-1.473,1.127-1.558,1.983Z"/><path class="h" d="M1667.922,822.235l-6.617-.088-.95-2.083a1.581,1.581,0,0,1-2,.51c-.985-.439-2.046-1.521-1.742-2.7a2.287,2.287,0,0,1,1.478-1.426,2.854,2.854,0,0,1,.938-.162.629.629,0,0,1-.053-.514c.505-1.574,2.288-2.422,3.36-.8-.582-.882.149-1.444.959-1.693.432-.133.911-.054,1.327-.172.672-.19.556-.627,1.179-.946.947-.484,1.806.425,2.234,1.171Z"/><path class="i" d="M1660.4,824.353a3.89,3.89,0,1,0,1.734,5.222"/><ellipse class="j" cx="20.493" cy="17.078" rx="20.493" ry="17.078" transform="translate(1657.047 812.425)"/><path class="k" d="M1693.455,821.057a3.891,3.891,0,1,1,0,5.5"/><circle class="f" cx="1.893" cy="1.893" r="1.893" transform="translate(1683.329 825.248)"/><circle class="f" cx="1.893" cy="1.893" r="1.893" transform="translate(1666.526 826.223)"/><path class="l" d="M1680.417,820.134s-.577-3.378-4.74-2.966c-2.927.289-2.906,3.807-2.906,3.807"/><path class="g" d="M1682.66,832.647a27.514,27.514,0,0,0-6.292,4.1c-.553.5-2.43,2.709-3.3,2.215a20.565,20.565,0,0,1-1.918-1.778,18.993,18.993,0,0,0-2.6-1.705c-2.405-1.319-5.131-2.348-7.207-4.181a.378.378,0,0,0-.484-.092,7.519,7.519,0,0,1-2.847.449c-.63-.131-1.574-.562-1.929.235a1.843,1.843,0,0,0,0,1.19c.283,1.134.58,2.216.974,3.324a16.763,16.763,0,0,0,3.185,5.365,19.479,19.479,0,0,0,10.58,6.258c8.549,1.776,18.245.2,24.385-6.429a14.648,14.648,0,0,0,4.152-9.139c.024-.4-.149-5.675-.583-5.513a25.723,25.723,0,0,1-4.028.662,25.692,25.692,0,0,0-4.031,1.615C1688.078,830.293,1685.293,831.347,1682.66,832.647Z"/><path class="m" d="M1670.548,841.3c1.065-3.046,5.481-7.065,8.4-8.442a45.187,45.187,0,0,1,11.928-3.711,24.185,24.185,0,0,1-3.142,9.68"/><path class="f" d="M1688.068,814.423s6.608-6.025-.085-8.319c-7.5-2.571-14.516,5.2-14.516,5.2Z"/><path class="f" d="M1667.656,814.268s-5.946-5.421.077-7.486c6.75-2.313,13.055,4.009,13.055,4.009Z"/><path class="n" d="M1663.673,795.586s-1.831,9.921-6.236,13.611"/><path class="e" d="M1662.4,807.171c.35,0,.724-.021,1.1,0a.936.936,0,0,1,.825,1.513,1.882,1.882,0,0,1-1.86.973c-.8-.109-1.595-.275-2.394-.4a5,5,0,0,0-.735-.005l-.026.116c.411.185.811.4,1.235.549a5.558,5.558,0,0,1,2.4,1.457,1.7,1.7,0,0,1,.532,1.118c.007.536-.31.767-.8.552a9.725,9.725,0,0,1-.9-.5c-.134-.077-.263-.162-.449-.277a8.511,8.511,0,0,1,.307.817,1.345,1.345,0,0,1-.207,1.174.724.724,0,0,1-1.068.247c-1.063-.562-1.235-.823-1.493-2.22-.084-.46-.176-.919-.287-1.372a6.386,6.386,0,0,0-.252-.7l-.106.006c-.057.487-.143.972-.163,1.461-.025.638-.013,1.279.012,1.917a1.2,1.2,0,0,1-.742,1.3,4.146,4.146,0,0,1-1.154.261.537.537,0,0,1-.656-.54,13.863,13.863,0,0,1,.054-1.492,5.86,5.86,0,0,1-.582.438,2.383,2.383,0,0,1-.737.333.776.776,0,0,1-.947-.81,2.46,2.46,0,0,1,1.3-2.153c.69-.378,1.4-.724,2.094-1.089a3.1,3.1,0,0,0,.323-.225l-.039-.082c-.2.058-.406.1-.6.178-.788.3-1.563.64-2.364.9a2.187,2.187,0,0,1-2.339-1.2.534.534,0,0,1,.261-.729,9.623,9.623,0,0,1,1.146-.423,2.618,2.618,0,0,1,.376-.062c-.284-.141-.5-.235-.7-.35a3.215,3.215,0,0,1-.511-.338c-.257-.218-.25-.422.03-.613a2.277,2.277,0,0,1,2.374-.216c.828.4,1.6.915,2.4,1.381.088.052.17.115.346.235a1.788,1.788,0,0,0-.15-.332q-.7-.863-1.411-1.715c-.246-.295-.585-.537-.585-.971a3.014,3.014,0,0,1,.4-1.741.946.946,0,0,1,1.675.068c.156.288.3.585.468.925.045-.346.064-.646.126-.937.164-.77.7-.957,1.246-.394a6.2,6.2,0,0,1,.874,1.248,1.149,1.149,0,0,1-.063,1.12c-.231.457-.511.89-.75,1.344-.2.376-.369.767-.551,1.152l.089.053c.155-.164.309-.329.464-.492.521-.545,1.024-1.107,1.567-1.629a2.9,2.9,0,0,1,2.008-.748c.632-.015.892.45.551.984a3.523,3.523,0,0,1-.553.6A4.908,4.908,0,0,1,1662.4,807.171Zm-4.229,2.177.267-.226-.147-.291-.342.018-.111.315Z"/><ellipse class="j" cx="3.33" cy="4.056" rx="3.33" ry="4.056" transform="translate(1656.193 798.305) rotate(-18.567)"/><path class="f" d="M1698.534,837.473a32.589,32.589,0,0,1-23.268,9.979c-7.7,0-16.67-7.342-16.67-7.342a13.743,13.743,0,0,0,10.375,9.611C1677.483,851.537,1695.014,847.6,1698.534,837.473Z"/><ellipse class="o" cx="2.271" cy="3.004" rx="2.271" ry="3.004" transform="matrix(0.053, -0.999, 0.999, 0.053, 1682.717, 823.815)"/><ellipse class="o" cx="2.271" cy="3.004" rx="2.271" ry="3.004" transform="matrix(0.053, -0.999, 0.999, 0.053, 1664.142, 824.742)"/></g></g><path class="q" d="M1727,703.943H1627a10,10,0,0,0-10,10v99.763l120-38.849V713.943A10,10,0,0,0,1727,703.943Z" transform="translate(-1617 -703.943)"/><g transform="translate(-1617 -703.943)"><text class="r" transform="translate(1718.938 740.259)"><tspan x="-4.125" y="0">Q</tspan></text><path class="s" d="M1725.97,721.565a.161.161,0,0,1,0,.235l-.159.113a32.419,32.419,0,0,0-6.631,6.3l-.119.152a.181.181,0,0,1-.247,0l-.171-.216a32.373,32.373,0,0,0-6.649-6.288l-.089-.063a.161.161,0,0,1,0-.235l.159-.113a32.4,32.4,0,0,0,6.631-6.3l.119-.151a.181.181,0,0,1,.247,0l.066.085a32.381,32.381,0,0,0,6.616,6.32Z"/><text class="r" transform="translate(1635.063 847.626) rotate(180)"><tspan x="-4.125" y="0">Q</tspan></text><path class="s" d="M1628.03,866.321a.161.161,0,0,1,0-.235l.159-.113a32.419,32.419,0,0,0,6.631-6.3l.119-.152a.181.181,0,0,1,.247,0l.171.216a32.373,32.373,0,0,0,6.649,6.288l.089.063a.161.161,0,0,1,0,.235l-.159.114a32.367,32.367,0,0,0-6.631,6.3l-.119.151a.181.181,0,0,1-.247,0l-.066-.085a32.381,32.381,0,0,0-6.616-6.32Z"/></g></g></svg>