<svg xmlns="http://www.w3.org/2000/svg" xmlns:xlink="http://www.w3.org/1999/xlink" width="120" height="180" viewBox="0 0 120 180"><defs><style>.a{fill:none;}.b{clip-path:url(#a);}.c{fill:#f7a4af;stroke:#fff;stroke-miterlimit:10;}.d,.e,.f{fill:#fff;}.d{opacity:0.2;}.e{font-size:12px;font-family:Roboto-Regular, Roboto;}.g{stroke:none;}</style><clipPath id="a"><rect class="a" width="120" height="180"/></clipPath></defs><g class="b"><g class="c" transform="translate(0 0)"><rect class="g" width="120" height="180" rx="10"/><rect class="a" x="0.5" y="0.5" width="119" height="179" rx="9.5"/></g><path class="d" d="M1292,703.943H1192a10,10,0,0,0-10,10v99.763l120-38.849V713.943A10,10,0,0,0,1292,703.943Z" transform="translate(-1182 -703.943)"/><g transform="translate(-1182 -703.943)"><text class="e" transform="translate(1283.938 740.259)"><tspan x="-3.369" y="0">9</tspan></text><path class="f" d="M1290.97,721.565a.161.161,0,0,1,0,.235l-.159.113a32.419,32.419,0,0,0-6.631,6.3l-.119.152a.181.181,0,0,1-.247,0l-.171-.216a32.373,32.373,0,0,0-6.649-6.288l-.089-.063a.161.161,0,0,1,0-.235l.159-.113a32.4,32.4,0,0,0,6.631-6.3l.119-.151a.181.181,0,0,1,.247,0l.066.085a32.381,32.381,0,0,0,6.616,6.32Z"/><text class="e" transform="translate(1200.063 847.626) rotate(180)"><tspan x="-3.369" y="0">9</tspan></text><path class="f" d="M1193.03,866.321a.161.161,0,0,1,0-.235l.159-.113a32.419,32.419,0,0,0,6.631-6.3l.119-.152a.181.181,0,0,1,.247,0l.171.216a32.373,32.373,0,0,0,6.649,6.288l.089.063a.161.161,0,0,1,0,.235l-.159.114a32.367,32.367,0,0,0-6.631,6.3l-.119.151a.181.181,0,0,1-.247,0l-.066-.085a32.381,32.381,0,0,0-6.616-6.32Z"/></g><g transform="translate(-1182 -703.943)"><path class="f" d="M1233.882,730.577a.239.239,0,0,1,0,.352l-.239.17a48.6,48.6,0,0,0-9.945,9.453l-.18.228a.272.272,0,0,1-.37,0l-.256-.324a48.624,48.624,0,0,0-9.974-9.432l-.134-.095a.241.241,0,0,1,0-.352l.239-.17a48.58,48.58,0,0,0,9.946-9.453l.179-.228a.272.272,0,0,1,.37,0l.1.128a48.563,48.563,0,0,0,9.924,9.479Z"/><path class="f" d="M1233.882,762.172a.239.239,0,0,1,0,.352l-.239.17a48.606,48.606,0,0,0-9.945,9.453l-.18.228a.272.272,0,0,1-.37,0l-.256-.324a48.62,48.62,0,0,0-9.974-9.432l-.134-.1a.241.241,0,0,1,0-.352l.239-.17a48.58,48.58,0,0,0,9.946-9.453l.179-.228a.272.272,0,0,1,.37,0l.1.128a48.561,48.561,0,0,0,9.924,9.479Z"/><path class="f" d="M1233.882,793.767a.239.239,0,0,1,0,.352l-.239.17a48.581,48.581,0,0,0-9.945,9.454l-.18.227a.271.271,0,0,1-.37,0l-.256-.324a48.622,48.622,0,0,0-9.974-9.432l-.134-.095a.241.241,0,0,1,0-.352l.239-.17a48.554,48.554,0,0,0,9.946-9.453l.179-.228a.271.271,0,0,1,.37,0l.1.128a48.563,48.563,0,0,0,9.924,9.479Z"/><path class="f" d="M1233.882,825.362a.239.239,0,0,1,0,.352l-.239.17a48.609,48.609,0,0,0-9.945,9.454l-.18.227a.272.272,0,0,1-.37,0l-.256-.324a48.62,48.62,0,0,0-9.974-9.432l-.134-.1a.241.241,0,0,1,0-.352l.239-.17a48.554,48.554,0,0,0,9.946-9.453l.179-.228a.272.272,0,0,1,.37,0l.1.128a48.561,48.561,0,0,0,9.924,9.479Z"/><path class="f" d="M1233.882,856.957a.239.239,0,0,1,0,.352l-.239.17a48.607,48.607,0,0,0-9.945,9.454l-.18.227a.271.271,0,0,1-.37,0l-.256-.324a48.622,48.622,0,0,0-9.974-9.432l-.134-.095a.241.241,0,0,1,0-.352l.239-.17a48.554,48.554,0,0,0,9.946-9.453l.179-.228a.271.271,0,0,1,.37,0l.1.128a48.535,48.535,0,0,0,9.924,9.479Z"/><path class="f" d="M1271.216,746.375a.239.239,0,0,1,0,.351l-.239.171a48.556,48.556,0,0,0-9.946,9.453l-.179.227a.272.272,0,0,1-.37,0l-.257-.323a48.571,48.571,0,0,0-9.973-9.433l-.134-.095a.238.238,0,0,1,0-.351l.239-.171a48.575,48.575,0,0,0,9.945-9.453l.18-.227a.272.272,0,0,1,.37,0l.1.127a48.536,48.536,0,0,0,9.923,9.48Z"/><path class="f" d="M1271.216,777.97a.239.239,0,0,1,0,.351l-.239.171a48.554,48.554,0,0,0-9.946,9.453l-.179.227a.272.272,0,0,1-.37,0l-.257-.323a48.569,48.569,0,0,0-9.973-9.433l-.134-.1a.238.238,0,0,1,0-.351l.239-.171a48.576,48.576,0,0,0,9.945-9.453l.18-.227a.271.271,0,0,1,.37,0l.1.127a48.538,48.538,0,0,0,9.923,9.48Z"/><path class="f" d="M1271.216,809.565a.239.239,0,0,1,0,.351l-.239.171a48.554,48.554,0,0,0-9.946,9.453l-.179.227a.272.272,0,0,1-.37,0l-.257-.323a48.572,48.572,0,0,0-9.973-9.433l-.134-.095a.238.238,0,0,1,0-.351l.239-.171a48.576,48.576,0,0,0,9.945-9.453l.18-.227a.272.272,0,0,1,.37,0l.1.127a48.536,48.536,0,0,0,9.923,9.48Z"/><path class="f" d="M1271.216,841.16a.239.239,0,0,1,0,.351l-.239.171a48.554,48.554,0,0,0-9.946,9.453l-.179.227a.272.272,0,0,1-.37,0l-.257-.323a48.569,48.569,0,0,0-9.973-9.433l-.134-.1a.238.238,0,0,1,0-.351l.239-.171a48.576,48.576,0,0,0,9.945-9.453l.18-.227a.271.271,0,0,1,.37,0l.1.127a48.538,48.538,0,0,0,9.923,9.48Z"/></g></g></svg>