<svg xmlns="http://www.w3.org/2000/svg" xmlns:xlink="http://www.w3.org/1999/xlink" width="120" height="180" viewBox="0 0 120 180"><defs><style>.a,.l,.m{fill:none;}.b{clip-path:url(#a);}.c,.e{fill:#f7a4af;}.c{stroke:#fff;}.c,.f,.i,.j{stroke-miterlimit:10;}.d{clip-path:url(#b);}.f{fill:#e0ced9;}.f,.i,.j,.k,.l,.m{stroke:#f7a4af;}.g,.i,.j,.k,.p,.q{fill:#fff;}.g{opacity:0.2;}.h{fill:#8c84d9;}.j,.m{stroke-width:0.742px;}.k,.l,.m{stroke-linecap:round;stroke-linejoin:round;}.l{stroke-width:0.75px;}.n{fill:#f5dddf;opacity:0.7;}.o{clip-path:url(#c);}.q{font-size:12px;font-family:Roboto-Regular, Roboto;}.r{stroke:none;}</style><clipPath id="a"><rect class="a" width="120" height="180"/></clipPath><clipPath id="b"><rect class="a" width="50.505" height="59.85" transform="translate(1796.78 734.093)"/></clipPath><clipPath id="c"><rect class="a" width="50.505" height="59.85" transform="translate(1847.22 853.793) rotate(180)"/></clipPath></defs><g class="b"><g class="c" transform="translate(0 0)"><rect class="r" width="120" height="180" rx="10"/><rect class="a" x="0.5" y="0.5" width="119" height="179" rx="9.5"/></g><g transform="translate(-1762 -703.943)"><g class="d"><path class="e" d="M1812.34,778.392s-4.129,9.171-7.723,9.2,3.518,4.158,4.894,2.705,4.664-10.65,4.664-10.65Z"/><path class="f" d="M1836.227,794.35s.417-1.759-1.239-7.418a21.4,21.4,0,0,0-5.473-9.1h-15.036a21.4,21.4,0,0,0-5.472,9.1c-1.657,5.659-1.239,7.418-1.239,7.418"/><path class="g" d="M1815.841,794.35a23.71,23.71,0,0,0,.038-8.231,13.8,13.8,0,0,0-3.974-6.931h7.3a15.735,15.735,0,0,1,.994,7.417,31.144,31.144,0,0,1-1.642,7.745Z"/><path class="g" d="M1828.154,794.35a23.686,23.686,0,0,1-.038-8.231,13.8,13.8,0,0,1,3.973-6.931h-7.3a15.751,15.751,0,0,0-.994,7.417,31.2,31.2,0,0,0,1.642,7.745Z"/><path class="e" d="M1818.622,739.566c-6.585.688-9.952,2.494-10.916,3.1,1.5,3.012,3.564,8.947,3.564,8.947l15.083-1.61s1.762-6.265,2.495-9.238C1827.954,740.221,1825.032,738.9,1818.622,739.566Z"/><path class="h" d="M1828.848,740.761a12.043,12.043,0,0,0,.315-1.486c.017-1.491-4.474-3.326-10.495-2.638-8.9,1.017-12.916,2.638-11.425,5.161.145.246.3.538.463.864.964-.6,4.331-2.408,10.916-3.1C1825.032,738.9,1827.954,740.221,1828.848,740.761Z"/><ellipse class="i" cx="1.529" cy="2.055" rx="1.529" ry="2.055" transform="translate(1831.988 785.013) rotate(-81.044)"/><path class="e" d="M1831.151,775.692a24.033,24.033,0,0,1,1.376,3.517c.153.918,1.147,1.683-1.376,2.371s-12.77,1.147-16.1,0-4.4-2.753-3.785-3.518,2.217-2.37,2.217-2.37Z"/><path class="j" d="M1836.059,764.375a3.823,3.823,0,1,0-1.7-5.132"/><ellipse class="i" cx="18.352" cy="15.293" rx="18.352" ry="15.293" transform="translate(1803.164 748.088)"/><path class="k" d="M1805.868,767.155a3.824,3.824,0,1,1,0-5.407"/><path class="l" d="M1817.344,750.89a9.716,9.716,0,0,1,6.352-.943,2.889,2.889,0,0,1,2.159,1.674c.576,1.462-.653,2.946-1.988,3.42-1.733.614-4.057-1.292-2.789-3.073a1.29,1.29,0,0,1,2.123.127"/><circle class="e" cx="1.893" cy="1.893" r="1.893" transform="translate(1811.27 758.716)"/><circle class="e" cx="1.893" cy="1.893" r="1.893" transform="translate(1828.073 757.741)"/><path class="h" d="M1837.937,775.782l-2.949,11.15,10.029-4.273a.651.651,0,0,0,.2-1.062l-6.2-6.112A.65.65,0,0,0,1837.937,775.782Z"/><path class="m" d="M1818.687,768.275s.578,3.378,4.741,2.966c2.927-.29,2.905-3.807,2.905-3.807"/><circle class="i" cx="2.844" cy="2.844" r="2.844" transform="translate(1833.423 784.045)"/><ellipse class="n" cx="3.004" cy="2.271" rx="3.004" ry="2.271" transform="translate(1810.477 765.202)"/><ellipse class="n" cx="3.004" cy="2.271" rx="3.004" ry="2.271" transform="translate(1828.977 763.289)"/></g><g class="o"><path class="e" d="M1831.66,809.494s4.129-9.171,7.723-9.2-3.518-4.158-4.894-2.705-4.664,10.65-4.664,10.65Z"/><path class="f" d="M1807.773,793.536s-.417,1.759,1.239,7.418a21.4,21.4,0,0,0,5.473,9.1h15.036a21.408,21.408,0,0,0,5.472-9.1c1.657-5.659,1.239-7.418,1.239-7.418"/><path class="g" d="M1828.159,793.536a23.711,23.711,0,0,0-.038,8.231,13.806,13.806,0,0,0,3.974,6.932h-7.3a15.742,15.742,0,0,1-.994-7.418,31.144,31.144,0,0,1,1.642-7.745Z"/><path class="g" d="M1815.846,793.536a23.686,23.686,0,0,1,.038,8.231,13.8,13.8,0,0,1-3.973,6.932h7.3a15.757,15.757,0,0,0,.994-7.418,31.2,31.2,0,0,0-1.642-7.745Z"/><path class="p" d="M1825.378,848.32c6.585-.688,9.952-2.494,10.916-3.1-1.5-3.013-3.564-8.948-3.564-8.948l-15.083,1.61s-1.762,6.265-2.495,9.238C1816.046,847.665,1818.968,848.99,1825.378,848.32Z"/><path class="h" d="M1815.152,847.125a12.043,12.043,0,0,0-.315,1.486c-.017,1.491,4.474,3.326,10.495,2.638,8.9-1.017,12.916-2.638,11.425-5.161-.145-.246-.3-.538-.463-.863-.964.6-4.331,2.407-10.916,3.1C1818.968,848.99,1816.046,847.665,1815.152,847.125Z"/><ellipse class="i" cx="1.529" cy="2.055" rx="1.529" ry="2.055" transform="translate(1807.477 805.253) rotate(-81.044)"/><path class="e" d="M1812.849,812.194a24.033,24.033,0,0,1-1.376-3.517c-.153-.918-1.147-1.682,1.376-2.371s12.77-1.147,16.1,0,4.4,2.753,3.785,3.518-2.217,2.37-2.217,2.37Z"/><path class="j" d="M1807.941,823.511a3.823,3.823,0,1,0,1.7,5.132"/><ellipse class="i" cx="18.352" cy="15.293" rx="18.352" ry="15.293" transform="translate(1804.132 809.212)"/><path class="k" d="M1838.132,820.731a3.823,3.823,0,1,1,0,5.407"/><path class="l" d="M1826.656,837a9.715,9.715,0,0,1-6.352.943,2.889,2.889,0,0,1-2.159-1.674c-.576-1.462.653-2.946,1.988-3.42,1.733-.614,4.057,1.292,2.789,3.073a1.29,1.29,0,0,1-2.123-.127"/><circle class="e" cx="1.893" cy="1.893" r="1.893" transform="translate(1828.945 825.385)"/><circle class="e" cx="1.893" cy="1.893" r="1.893" transform="translate(1812.142 826.36)"/><path class="h" d="M1806.063,812.1l2.949-11.15-10.029,4.274a.65.65,0,0,0-.2,1.061l6.2,6.112A.65.65,0,0,0,1806.063,812.1Z"/><path class="m" d="M1825.313,819.611s-.578-3.378-4.741-2.966c-2.927.29-2.905,3.808-2.905,3.808"/><circle class="i" cx="2.844" cy="2.844" r="2.844" transform="translate(1804.89 798.154)"/><ellipse class="n" cx="3.004" cy="2.271" rx="3.004" ry="2.271" transform="translate(1827.515 818.143)"/><ellipse class="n" cx="3.004" cy="2.271" rx="3.004" ry="2.271" transform="translate(1809.015 820.056)"/></g></g><path class="g" d="M1872,703.943H1772a10,10,0,0,0-10,10v99.763l120-38.849V713.943A10,10,0,0,0,1872,703.943Z" transform="translate(-1762 -703.943)"/><g transform="translate(-1762 -703.943)"><text class="q" transform="translate(1863.938 740.259)"><tspan x="-3.762" y="0">K</tspan></text><path class="p" d="M1870.97,721.565a.161.161,0,0,1,0,.235l-.159.113a32.419,32.419,0,0,0-6.631,6.3l-.119.152a.181.181,0,0,1-.247,0l-.171-.216a32.373,32.373,0,0,0-6.649-6.288l-.089-.063a.161.161,0,0,1,0-.235l.159-.113a32.4,32.4,0,0,0,6.631-6.3l.119-.151a.181.181,0,0,1,.247,0l.066.085a32.381,32.381,0,0,0,6.616,6.32Z"/><text class="q" transform="translate(1780.063 847.626) rotate(180)"><tspan x="-3.762" y="0">K</tspan></text><path class="p" d="M1773.03,866.321a.161.161,0,0,1,0-.235l.159-.113a32.419,32.419,0,0,0,6.631-6.3l.119-.152a.181.181,0,0,1,.247,0l.171.216a32.373,32.373,0,0,0,6.649,6.288l.089.063a.161.161,0,0,1,0,.235l-.159.114a32.367,32.367,0,0,0-6.631,6.3l-.119.151a.181.181,0,0,1-.247,0l-.066-.085a32.381,32.381,0,0,0-6.616-6.32Z"/></g></g></svg>