<svg xmlns="http://www.w3.org/2000/svg" xmlns:xlink="http://www.w3.org/1999/xlink" width="120" height="180" viewBox="0 0 120 180"><defs><style>.a{fill:none;}.b{clip-path:url(#a);}.c{fill:#f7a4af;stroke:#fff;stroke-miterlimit:10;}.d,.e,.f{fill:#fff;}.e{opacity:0.2;}.f{font-size:12px;font-family:Roboto-Regular, Roboto;}.g{stroke:none;}</style><clipPath id="a"><rect class="a" width="120" height="180"/></clipPath></defs><g class="b"><g class="c" transform="translate(0 0)"><rect class="g" width="120" height="180" rx="10"/><rect class="a" x="0.5" y="0.5" width="119" height="179" rx="9.5"/></g><g transform="translate(-22 -703.943)"><path class="d" d="M99.816,793.646a.4.4,0,0,1,0,.594l-.4.288a82.046,82.046,0,0,0-16.8,15.965l-.3.384a.46.46,0,0,1-.626,0l-.433-.546A82.074,82.074,0,0,0,64.41,794.4l-.226-.16a.4.4,0,0,1,0-.594l.4-.288a82.046,82.046,0,0,0,16.8-15.965l.3-.384a.46.46,0,0,1,.626,0l.168.215a82.018,82.018,0,0,0,16.76,16.01Z"/></g><path class="e" d="M132,703.943H32a10,10,0,0,0-10,10v99.763l120-38.849V713.943A10,10,0,0,0,132,703.943Z" transform="translate(-22 -703.943)"/><g transform="translate(-22 -703.943)"><text class="f" transform="translate(123.938 740.259)"><tspan x="-3.914" y="0">A</tspan></text><path class="d" d="M130.97,721.565a.161.161,0,0,1,0,.235l-.159.113a32.424,32.424,0,0,0-6.631,6.3l-.119.152a.181.181,0,0,1-.247,0l-.171-.216a32.371,32.371,0,0,0-6.649-6.288l-.089-.063a.161.161,0,0,1,0-.235l.159-.113a32.4,32.4,0,0,0,6.631-6.3l.119-.151a.181.181,0,0,1,.247,0l.066.085a32.381,32.381,0,0,0,6.616,6.32Z"/><text class="f" transform="translate(40.063 847.626) rotate(180)"><tspan x="-3.914" y="0">A</tspan></text><path class="d" d="M33.03,866.321a.161.161,0,0,1,0-.235l.159-.113a32.423,32.423,0,0,0,6.631-6.3l.119-.152a.181.181,0,0,1,.247,0l.171.216a32.371,32.371,0,0,0,6.649,6.288l.089.063a.161.161,0,0,1,0,.235l-.159.114a32.371,32.371,0,0,0-6.631,6.3l-.119.151a.181.181,0,0,1-.247,0l-.066-.085a32.381,32.381,0,0,0-6.616-6.32Z"/></g></g></svg>