<svg xmlns="http://www.w3.org/2000/svg" xmlns:xlink="http://www.w3.org/1999/xlink" width="120" height="180" viewBox="0 0 120 180"><defs><style>.a{fill:none;}.b{clip-path:url(#a);}.c{fill:#f7a4af;stroke:#fff;stroke-miterlimit:10;}.d,.e,.f{fill:#fff;}.d{opacity:0.2;}.e{font-size:12px;font-family:Roboto-Regular, Roboto;}.g{stroke:none;}</style><clipPath id="a"><rect class="a" width="120" height="180"/></clipPath></defs><g class="b"><g class="c" transform="translate(0 0)"><rect class="g" width="120" height="180" rx="10"/><rect class="a" x="0.5" y="0.5" width="119" height="179" rx="9.5"/></g><path class="d" d="M1437,703.943H1337a10,10,0,0,0-10,10v99.763l120-38.849V713.943A10,10,0,0,0,1437,703.943Z" transform="translate(-1327 -703.943)"/><g transform="translate(-1327 -703.943)"><text class="e" transform="translate(1428.938 740.259)"><tspan x="-6.738" y="0">10</tspan></text><path class="f" d="M1435.97,721.565a.161.161,0,0,1,0,.235l-.159.113a32.419,32.419,0,0,0-6.631,6.3l-.119.152a.181.181,0,0,1-.247,0l-.171-.216a32.373,32.373,0,0,0-6.649-6.288l-.089-.063a.161.161,0,0,1,0-.235l.159-.113a32.4,32.4,0,0,0,6.631-6.3l.119-.151a.181.181,0,0,1,.247,0l.066.085a32.381,32.381,0,0,0,6.616,6.32Z"/><text class="e" transform="translate(1345.063 847.626) rotate(180)"><tspan x="-6.738" y="0">10</tspan></text><path class="f" d="M1338.03,866.321a.161.161,0,0,1,0-.235l.159-.113a32.419,32.419,0,0,0,6.631-6.3l.119-.152a.181.181,0,0,1,.247,0l.171.216a32.373,32.373,0,0,0,6.649,6.288l.089.063a.161.161,0,0,1,0,.235l-.159.114a32.367,32.367,0,0,0-6.631,6.3l-.119.151a.181.181,0,0,1-.247,0l-.066-.085a32.381,32.381,0,0,0-6.616-6.32Z"/></g><g transform="translate(-1327 -703.943)"><path class="f" d="M1378.882,730.577a.239.239,0,0,1,0,.352l-.239.17a48.6,48.6,0,0,0-9.945,9.453l-.18.228a.272.272,0,0,1-.37,0l-.256-.324a48.624,48.624,0,0,0-9.974-9.432l-.134-.095a.241.241,0,0,1,0-.352l.239-.17a48.58,48.58,0,0,0,9.946-9.453l.179-.228a.272.272,0,0,1,.37,0l.1.128a48.563,48.563,0,0,0,9.924,9.479Z"/><path class="f" d="M1378.882,762.172a.239.239,0,0,1,0,.352l-.239.17a48.606,48.606,0,0,0-9.945,9.453l-.18.228a.272.272,0,0,1-.37,0l-.256-.324a48.62,48.62,0,0,0-9.974-9.432l-.134-.1a.241.241,0,0,1,0-.352l.239-.17a48.58,48.58,0,0,0,9.946-9.453l.179-.228a.272.272,0,0,1,.37,0l.1.128a48.561,48.561,0,0,0,9.924,9.479Z"/><path class="f" d="M1378.882,793.767a.239.239,0,0,1,0,.352l-.239.17a48.581,48.581,0,0,0-9.945,9.454l-.18.227a.271.271,0,0,1-.37,0l-.256-.324a48.622,48.622,0,0,0-9.974-9.432l-.134-.095a.241.241,0,0,1,0-.352l.239-.17a48.554,48.554,0,0,0,9.946-9.453l.179-.228a.271.271,0,0,1,.37,0l.1.128a48.563,48.563,0,0,0,9.924,9.479Z"/><path class="f" d="M1378.882,825.362a.239.239,0,0,1,0,.352l-.239.17a48.609,48.609,0,0,0-9.945,9.454l-.18.227a.272.272,0,0,1-.37,0l-.256-.324a48.62,48.62,0,0,0-9.974-9.432l-.134-.1a.241.241,0,0,1,0-.352l.239-.17a48.554,48.554,0,0,0,9.946-9.453l.179-.228a.272.272,0,0,1,.37,0l.1.128a48.561,48.561,0,0,0,9.924,9.479Z"/><path class="f" d="M1378.882,856.957a.239.239,0,0,1,0,.352l-.239.17a48.607,48.607,0,0,0-9.945,9.454l-.18.227a.271.271,0,0,1-.37,0l-.256-.324a48.622,48.622,0,0,0-9.974-9.432l-.134-.095a.241.241,0,0,1,0-.352l.239-.17a48.554,48.554,0,0,0,9.946-9.453l.179-.228a.271.271,0,0,1,.37,0l.1.128a48.535,48.535,0,0,0,9.924,9.479Z"/><path class="f" d="M1416.216,730.577a.241.241,0,0,1,0,.352l-.239.17a48.58,48.58,0,0,0-9.946,9.453l-.179.228a.272.272,0,0,1-.37,0l-.257-.324a48.594,48.594,0,0,0-9.973-9.432l-.134-.095a.239.239,0,0,1,0-.352l.239-.17a48.6,48.6,0,0,0,9.945-9.453l.18-.228a.272.272,0,0,1,.37,0l.1.128a48.533,48.533,0,0,0,9.923,9.479Z"/><path class="f" d="M1416.216,762.172a.241.241,0,0,1,0,.352l-.239.17a48.584,48.584,0,0,0-9.946,9.453l-.179.228a.272.272,0,0,1-.37,0l-.257-.324a48.59,48.59,0,0,0-9.973-9.432l-.134-.1a.239.239,0,0,1,0-.352l.239-.17a48.6,48.6,0,0,0,9.945-9.453l.18-.228a.272.272,0,0,1,.37,0l.1.128a48.531,48.531,0,0,0,9.923,9.479Z"/><path class="f" d="M1416.216,793.767a.241.241,0,0,1,0,.352l-.239.17a48.559,48.559,0,0,0-9.946,9.454l-.179.227a.271.271,0,0,1-.37,0l-.257-.324a48.592,48.592,0,0,0-9.973-9.432l-.134-.095a.239.239,0,0,1,0-.352l.239-.17a48.576,48.576,0,0,0,9.945-9.453l.18-.228a.271.271,0,0,1,.37,0l.1.128a48.533,48.533,0,0,0,9.923,9.479Z"/><path class="f" d="M1416.216,825.362a.241.241,0,0,1,0,.352l-.239.17a48.587,48.587,0,0,0-9.946,9.454l-.179.227a.272.272,0,0,1-.37,0l-.257-.324a48.59,48.59,0,0,0-9.973-9.432l-.134-.1a.239.239,0,0,1,0-.352l.239-.17a48.576,48.576,0,0,0,9.945-9.453l.18-.228a.272.272,0,0,1,.37,0l.1.128a48.531,48.531,0,0,0,9.923,9.479Z"/><path class="f" d="M1416.216,856.957a.241.241,0,0,1,0,.352l-.239.17a48.585,48.585,0,0,0-9.946,9.454l-.179.227a.271.271,0,0,1-.37,0l-.257-.324a48.592,48.592,0,0,0-9.973-9.432l-.134-.095a.239.239,0,0,1,0-.352l.239-.17a48.576,48.576,0,0,0,9.945-9.453l.18-.228a.271.271,0,0,1,.37,0l.1.128a48.505,48.505,0,0,0,9.923,9.479Z"/></g></g></svg>