<svg xmlns="http://www.w3.org/2000/svg" xmlns:xlink="http://www.w3.org/1999/xlink" width="120" height="180" viewBox="0 0 120 180"><defs><style>.a,.k,.m,.n{fill:none;}.b{clip-path:url(#a);}.c,.f,.l{fill:#f7a4af;}.c{stroke:#fff;}.c,.e,.h,.i,.l,.m,.n{stroke-miterlimit:10;}.d{clip-path:url(#b);}.e{fill:#e0ced9;}.e,.h,.i,.j,.k,.l,.m,.n{stroke:#f7a4af;}.g{fill:#8c84d9;}.h,.i,.j,.q,.r,.s{fill:#fff;}.h,.k{stroke-width:0.742px;}.j,.k{stroke-linecap:round;stroke-linejoin:round;}.n{stroke-width:0.5px;}.o{fill:#f5dddf;opacity:0.7;}.p{clip-path:url(#c);}.q{opacity:0.2;}.r{font-size:12px;font-family:Roboto-Regular, Roboto;}.t{stroke:none;}</style><clipPath id="a"><rect class="a" width="120" height="180"/></clipPath><clipPath id="b"><rect class="a" width="53.204" height="71.028" transform="translate(1505.037 722.911)"/></clipPath><clipPath id="c"><rect class="a" width="53.204" height="71.028" transform="translate(1558.963 864.975) rotate(180)"/></clipPath></defs><g class="b"><g class="c" transform="translate(0 0)"><rect class="t" width="120" height="180" rx="10"/><rect class="a" x="0.5" y="0.5" width="119" height="179" rx="9.5"/></g><g transform="translate(-1472 -703.943)"><g class="d"><path class="e" d="M1547.892,794.346s.466-1.964-1.385-8.282a23.9,23.9,0,0,0-6.11-10.158h-16.791a23.909,23.909,0,0,0-6.111,10.158c-1.85,6.318-1.384,8.282-1.384,8.282"/><path class="f" d="M1523.466,775.906s5.714,4.873,7.858,10.013a29.743,29.743,0,0,1,2.373,8.427h-6.805a13.4,13.4,0,0,0-1.357-9.205,17.371,17.371,0,0,0-4.849-5.943Z"/><path class="f" d="M1540.537,775.906s-5.714,4.873-7.858,10.013a29.773,29.773,0,0,0-2.374,8.427h6.806a13.4,13.4,0,0,1,1.356-9.205,17.383,17.383,0,0,1,4.849-5.943Z"/><path class="g" d="M1535.564,733.068a16.908,16.908,0,0,1-5.726-5.861,16.917,16.917,0,0,1-5.727,5.861c-4.293,2.88-10,0-10,0l2.565,9.05,13.165-3.394L1543,742.118l2.564-9.05S1539.858,735.948,1535.564,733.068Z"/><path class="h" d="M1548.608,763.537a3.891,3.891,0,1,0-1.733-5.222"/><ellipse class="i" cx="21.661" cy="18.072" rx="21.661" ry="18.072" transform="translate(1509.601 739.32)"/><path class="j" d="M1515.549,766.833a3.891,3.891,0,1,1,0-5.5"/><circle class="f" cx="1.893" cy="1.893" r="1.893" transform="translate(1521.89 758.857)"/><circle class="f" cx="1.893" cy="1.893" r="1.893" transform="translate(1538.693 757.882)"/><path class="k" d="M1528.587,767.756s.577,3.378,4.741,2.966c2.926-.289,2.905-3.807,2.905-3.807"/><path class="f" d="M1521.961,773.292a1.581,1.581,0,0,0-1.386.49c-1.459,1.582-4.726,5.866.678,7.718,4.838,1.658,10.236-1.331,13.458-3.662a1.6,1.6,0,0,0-.722-2.87Z"/><path class="f" d="M1540.784,773.7a1.151,1.151,0,0,1,1,.353c1.252,1.325,4.484,5.343-.509,7.054-4.663,1.6-9.905-1.6-12.7-3.732a1.144,1.144,0,0,1,.533-2.047Z"/><path class="l" d="M1549.072,744.01c-2.609-1.825-6.982-5.177-14.5-5.747.064-.1.129-.2.192-.313,1.251-2.164-.159-3.387-.661-1.73-.293.966-1.991,1.62-3.359,2-.3.015-.6.034-.91.057-10.491.8-14.579,3.326-18.327,8.717s-1.931,14.406-1.931,14.406l2.97-1.015,1.607.367s4.848-10.087,6.166-10.546,2.848,3.376,3.46,2.72,2.861-6.505,4.145-6.391,10.5,4.588,10.766,4.015.942-3.674,1.464-4.016,4.741,3.711,6.188,5.01,6.8,4.912,7.447,4.425-.471-4.846-1.745-6.566l-1.273-1.721s3.95-.158,4.441-1.169S1552.187,746.189,1549.072,744.01Z"/><path class="f" d="M1548.184,792.371l-1.459-.255a.259.259,0,0,1-.212-.292l1.532-11a.262.262,0,0,1,.3-.221l2.219.388a.261.261,0,0,1,.21.31l-2.294,10.869A.26.26,0,0,1,1548.184,792.371Z"/><path class="m" d="M1550.49,781.564a3.609,3.609,0,0,1,3.075,4.484c-.7,4.007-4.823,3.719-4.823,3.719"/><path class="i" d="M1551.64,779.937l-3.944-.69,2.441-16.576,2.828-1.929L1555,763.36Z"/><ellipse class="i" cx="4.056" cy="3.33" rx="4.056" ry="3.33" transform="translate(1543.588 788.517) rotate(-63.883)"/><path class="n" d="M1550.137,762.671l2.178,1.791-2.644,15.116"/><line class="n" x1="2.683" y2="1.101" transform="translate(1552.315 763.36)"/><path class="g" d="M1552.268,781.968l-5.853-1.024a.259.259,0,0,1-.214-.275l.194-2.692a.261.261,0,0,1,.3-.238l6.389,1.118a.259.259,0,0,1,.2.327l-.731,2.6A.259.259,0,0,1,1552.268,781.968Z"/><ellipse class="o" cx="2.271" cy="3.004" rx="2.271" ry="3.004" transform="matrix(0.053, -0.999, 0.999, 0.053, 1520.708, 767.942)"/><ellipse class="o" cx="2.271" cy="3.004" rx="2.271" ry="3.004" transform="matrix(0.053, -0.999, 0.999, 0.053, 1539.283, 767.015)"/></g><g class="p"><path class="e" d="M1516.108,793.54s-.466,1.964,1.385,8.283a23.9,23.9,0,0,0,6.11,10.157h16.791a23.91,23.91,0,0,0,6.111-10.157c1.85-6.319,1.384-8.283,1.384-8.283"/><path class="f" d="M1540.534,811.98s-5.714-4.873-7.858-10.013a29.743,29.743,0,0,1-2.373-8.427h6.805a13.4,13.4,0,0,0,1.357,9.205,17.383,17.383,0,0,0,4.849,5.944Z"/><path class="f" d="M1523.463,811.98s5.714-4.873,7.858-10.013a29.773,29.773,0,0,0,2.374-8.427h-6.806a13.4,13.4,0,0,1-1.356,9.205,17.4,17.4,0,0,1-4.849,5.944Z"/><path class="g" d="M1528.436,854.818a16.908,16.908,0,0,1,5.726,5.861,16.918,16.918,0,0,1,5.727-5.861c4.293-2.879,10,0,10,0l-2.565-9.049-13.165,3.393L1521,845.769l-2.564,9.049S1524.142,851.939,1528.436,854.818Z"/><path class="h" d="M1515.392,824.349a3.892,3.892,0,1,0,1.733,5.222"/><ellipse class="i" cx="21.661" cy="18.072" rx="21.661" ry="18.072" transform="translate(1511.077 812.421)"/><path class="j" d="M1548.451,821.053a3.891,3.891,0,1,1,0,5.5"/><circle class="f" cx="1.893" cy="1.893" r="1.893" transform="translate(1538.325 825.244)"/><circle class="f" cx="1.893" cy="1.893" r="1.893" transform="translate(1521.521 826.219)"/><path class="k" d="M1535.413,820.13s-.577-3.378-4.741-2.966c-2.926.289-2.905,3.807-2.905,3.807"/><path class="f" d="M1542.039,814.595a1.579,1.579,0,0,0,1.386-.491c1.459-1.581,4.726-5.866-.678-7.718-4.838-1.658-10.236,1.331-13.458,3.662a1.6,1.6,0,0,0,.722,2.87Z"/><path class="f" d="M1523.216,814.186a1.151,1.151,0,0,1-1-.353c-1.252-1.325-4.484-5.343.509-7.054,4.663-1.6,9.905,1.6,12.7,3.732a1.144,1.144,0,0,1-.533,2.047Z"/><path class="l" d="M1514.928,843.876c2.609,1.825,6.982,5.177,14.5,5.747-.064.1-.129.2-.192.313-1.251,2.164.159,3.387.661,1.73.293-.965,1.991-1.62,3.359-2,.3-.015.6-.033.91-.057,10.491-.8,14.579-3.326,18.327-8.717s1.931-14.406,1.931-14.406l-2.97,1.015-1.607-.367s-4.848,10.087-6.166,10.546-2.848-3.376-3.46-2.72-2.861,6.505-4.145,6.391-10.5-4.588-10.766-4.015-.942,3.674-1.464,4.016-4.741-3.71-6.188-5.01-6.8-4.912-7.447-4.425.471,4.846,1.745,6.566l1.273,1.721s-3.95.159-4.441,1.169S1511.813,841.7,1514.928,843.876Z"/><path class="f" d="M1515.816,795.515l1.459.255a.259.259,0,0,1,.212.292l-1.532,11a.261.261,0,0,1-.3.22l-2.219-.388a.261.261,0,0,1-.21-.31l2.294-10.869A.26.26,0,0,1,1515.816,795.515Z"/><path class="m" d="M1513.51,806.322a3.609,3.609,0,0,1-3.075-4.484c.7-4.007,4.823-3.718,4.823-3.718"/><path class="i" d="M1512.36,807.949l3.944.69-2.441,16.576-2.828,1.929L1509,824.526Z"/><ellipse class="i" cx="4.056" cy="3.33" rx="4.056" ry="3.33" transform="translate(1510.861 803.721) rotate(-63.883)"/><path class="n" d="M1513.863,825.216l-2.178-1.791,2.644-15.116"/><line class="n" y1="1.101" x2="2.683" transform="translate(1509.002 823.425)"/><path class="g" d="M1511.732,805.918l5.853,1.024a.259.259,0,0,1,.214.275l-.194,2.692a.261.261,0,0,1-.3.238l-6.389-1.118a.259.259,0,0,1-.2-.326l.731-2.6A.259.259,0,0,1,1511.732,805.918Z"/><ellipse class="o" cx="2.271" cy="3.004" rx="2.271" ry="3.004" transform="matrix(0.053, -0.999, 0.999, 0.053, 1537.052, 824.159)"/><ellipse class="o" cx="2.271" cy="3.004" rx="2.271" ry="3.004" transform="matrix(0.053, -0.999, 0.999, 0.053, 1518.476, 825.086)"/></g></g><path class="q" d="M1582,703.943H1482a10,10,0,0,0-10,10v99.763l120-38.849V713.943A10,10,0,0,0,1582,703.943Z" transform="translate(-1472 -703.943)"/><g transform="translate(-1472 -703.943)"><text class="r" transform="translate(1573.938 740.259)"><tspan x="-3.311" y="0">J</tspan></text><path class="s" d="M1580.97,721.565a.161.161,0,0,1,0,.235l-.159.113a32.419,32.419,0,0,0-6.631,6.3l-.119.152a.181.181,0,0,1-.247,0l-.171-.216a32.373,32.373,0,0,0-6.649-6.288l-.089-.063a.161.161,0,0,1,0-.235l.159-.113a32.4,32.4,0,0,0,6.631-6.3l.119-.151a.181.181,0,0,1,.247,0l.066.085a32.381,32.381,0,0,0,6.616,6.32Z"/><text class="r" transform="translate(1490.063 847.626) rotate(180)"><tspan x="-3.311" y="0">J</tspan></text><path class="s" d="M1483.03,866.321a.161.161,0,0,1,0-.235l.159-.113a32.419,32.419,0,0,0,6.631-6.3l.119-.152a.181.181,0,0,1,.247,0l.171.216a32.373,32.373,0,0,0,6.649,6.288l.089.063a.161.161,0,0,1,0,.235l-.159.114a32.367,32.367,0,0,0-6.631,6.3l-.119.151a.181.181,0,0,1-.247,0l-.066-.085a32.381,32.381,0,0,0-6.616-6.32Z"/></g></g></svg>