<svg xmlns="http://www.w3.org/2000/svg" xmlns:xlink="http://www.w3.org/1999/xlink" width="120" height="180" viewBox="0 0 120 180"><defs><style>.a{fill:none;}.b{clip-path:url(#a);}.c{fill:#f7a4af;stroke:#fff;stroke-miterlimit:10;}.d,.e,.f{fill:#fff;}.d{opacity:0.2;}.e{font-size:12px;font-family:Roboto-Regular, Roboto;}.g{stroke:none;}</style><clipPath id="a"><rect class="a" width="120" height="180"/></clipPath></defs><g class="b"><g class="c"><rect class="g" width="120" height="180" rx="10"/><rect class="a" x="0.5" y="0.5" width="119" height="179" rx="9.5"/></g><path class="d" d="M1292,475.962H1192a10,10,0,0,0-10,10v99.763l120-38.849V485.962A10,10,0,0,0,1292,475.962Z" transform="translate(-1182 -475.962)"/><g transform="translate(-1182 -475.962)"><text class="e" transform="translate(1283.938 512.278)"><tspan x="-3.369" y="0">9</tspan></text><path class="f" d="M1283.938,499.234l-5.53-5.256a3.285,3.285,0,0,1,0-4.812,3.714,3.714,0,0,1,5.064,0l.466.443.465-.443a3.714,3.714,0,0,1,5.064,0,3.285,3.285,0,0,1,0,4.812Z"/><text class="e" transform="translate(1200.063 619.644) rotate(180)"><tspan x="-3.369" y="0">9</tspan></text><path class="f" d="M1200.062,632.69l5.53,5.256a3.285,3.285,0,0,1,0,4.812,3.714,3.714,0,0,1-5.064,0l-.466-.442-.465.442a3.714,3.714,0,0,1-5.064,0,3.285,3.285,0,0,1,0-4.812Z"/></g><g transform="translate(-1182 -475.962)"><path class="f" d="M1223.333,511.07l-8.293-7.883a4.926,4.926,0,0,1,0-7.218,5.569,5.569,0,0,1,7.595,0l.7.664.7-.664a5.569,5.569,0,0,1,7.595,0,4.927,4.927,0,0,1,0,7.218Z"/><path class="f" d="M1223.333,542.666l-8.293-7.884a4.925,4.925,0,0,1,0-7.218,5.569,5.569,0,0,1,7.595,0l.7.664.7-.664a5.569,5.569,0,0,1,7.595,0,4.927,4.927,0,0,1,0,7.218Z"/><path class="f" d="M1223.333,574.261l-8.293-7.884a4.926,4.926,0,0,1,0-7.218,5.569,5.569,0,0,1,7.595,0l.7.664.7-.664a5.569,5.569,0,0,1,7.595,0,4.927,4.927,0,0,1,0,7.218Z"/><path class="f" d="M1223.333,605.856l-8.293-7.884a4.925,4.925,0,0,1,0-7.218,5.569,5.569,0,0,1,7.595,0l.7.664.7-.664a5.569,5.569,0,0,1,7.595,0,4.927,4.927,0,0,1,0,7.218Z"/><path class="f" d="M1223.333,637.451l-8.293-7.883a4.927,4.927,0,0,1,0-7.219,5.569,5.569,0,0,1,7.595,0l.7.664.7-.664a5.569,5.569,0,0,1,7.595,0,4.928,4.928,0,0,1,0,7.219Z"/><path class="f" d="M1260.667,526.868l-8.294-7.883a4.928,4.928,0,0,1,0-7.219,5.571,5.571,0,0,1,7.595,0l.7.664.7-.664a5.571,5.571,0,0,1,7.595,0,4.927,4.927,0,0,1,0,7.219Z"/><path class="f" d="M1260.667,558.463l-8.294-7.883a4.928,4.928,0,0,1,0-7.219,5.571,5.571,0,0,1,7.595,0l.7.664.7-.664a5.571,5.571,0,0,1,7.595,0,4.927,4.927,0,0,1,0,7.219Z"/><path class="f" d="M1260.667,590.058l-8.294-7.883a4.928,4.928,0,0,1,0-7.219,5.571,5.571,0,0,1,7.595,0l.7.664.7-.664a5.571,5.571,0,0,1,7.595,0,4.927,4.927,0,0,1,0,7.219Z"/><path class="f" d="M1260.667,621.653l-8.294-7.883a4.928,4.928,0,0,1,0-7.219,5.571,5.571,0,0,1,7.595,0l.7.664.7-.664a5.571,5.571,0,0,1,7.595,0,4.927,4.927,0,0,1,0,7.219Z"/></g></g></svg>