<svg xmlns="http://www.w3.org/2000/svg" xmlns:xlink="http://www.w3.org/1999/xlink" width="120" height="180" viewBox="0 0 120 180"><defs><style>.a{fill:none;}.b{clip-path:url(#a);}.c{fill:#f7a4af;stroke:#fff;stroke-miterlimit:10;}.d,.e,.f{fill:#fff;}.e{opacity:0.2;}.f{font-size:12px;font-family:Roboto-Regular, Roboto;}.g{stroke:none;}</style><clipPath id="a"><rect class="a" width="120" height="180"/></clipPath></defs><g class="b"><g class="c"><rect class="g" width="120" height="180" rx="10"/><rect class="a" x="0.5" y="0.5" width="119" height="179" rx="9.5"/></g><g transform="translate(-22 -475.962)"><path class="d" d="M82,579.977,67.993,566.664a8.323,8.323,0,0,1,0-12.192,9.407,9.407,0,0,1,12.827,0L82,555.593l1.18-1.121a9.407,9.407,0,0,1,12.827,0,8.323,8.323,0,0,1,0,12.192Z"/></g><path class="e" d="M132,475.962H32a10,10,0,0,0-10,10v99.763l120-38.849V485.962A10,10,0,0,0,132,475.962Z" transform="translate(-22 -475.962)"/><g transform="translate(-22 -475.962)"><text class="f" transform="translate(123.938 512.278)"><tspan x="-3.914" y="0">A</tspan></text><path class="d" d="M123.938,499.234l-5.53-5.256a3.285,3.285,0,0,1,0-4.812,3.714,3.714,0,0,1,5.064,0l.466.443.465-.443a3.714,3.714,0,0,1,5.064,0,3.285,3.285,0,0,1,0,4.812Z"/><text class="f" transform="translate(40.063 619.644) rotate(180)"><tspan x="-3.914" y="0">A</tspan></text><path class="d" d="M40.062,632.69l5.53,5.256a3.285,3.285,0,0,1,0,4.812,3.714,3.714,0,0,1-5.064,0l-.466-.442-.465.442a3.714,3.714,0,0,1-5.064,0,3.285,3.285,0,0,1,0-4.812Z"/></g></g></svg>