<svg xmlns="http://www.w3.org/2000/svg" xmlns:xlink="http://www.w3.org/1999/xlink" width="120" height="180" viewBox="0 0 120 180"><defs><style>.a,.l,.m{fill:none;}.b{clip-path:url(#a);}.c,.e{fill:#f7a4af;}.c{stroke:#fff;}.c,.f,.i,.j{stroke-miterlimit:10;}.d{clip-path:url(#b);}.f{fill:#e0ced9;}.f,.i,.j,.k,.l,.m{stroke:#f7a4af;}.g,.i,.j,.k,.p,.q{fill:#fff;}.g{opacity:0.2;}.h{fill:#8c84d9;}.j,.m{stroke-width:0.742px;}.k,.l,.m{stroke-linecap:round;stroke-linejoin:round;}.l{stroke-width:0.75px;}.n{fill:#f5dddf;opacity:0.7;}.o{clip-path:url(#c);}.q{font-size:12px;font-family:Roboto-Regular, Roboto;}.r{stroke:none;}</style><clipPath id="a"><rect class="a" width="120" height="180"/></clipPath><clipPath id="b"><rect class="a" width="50.505" height="59.85" transform="translate(1796.78 506.112)"/></clipPath><clipPath id="c"><rect class="a" width="50.505" height="59.85" transform="translate(1847.22 625.812) rotate(180)"/></clipPath></defs><g class="b"><g class="c"><rect class="r" width="120" height="180" rx="10"/><rect class="a" x="0.5" y="0.5" width="119" height="179" rx="9.5"/></g><g transform="translate(-1762 -475.962)"><g class="d"><path class="e" d="M1812.34,550.411s-4.129,9.171-7.723,9.2,3.518,4.158,4.894,2.7,4.664-10.65,4.664-10.65Z"/><path class="f" d="M1836.227,566.369s.417-1.759-1.239-7.418a21.4,21.4,0,0,0-5.473-9.1h-15.036a21.408,21.408,0,0,0-5.472,9.1c-1.657,5.659-1.239,7.418-1.239,7.418"/><path class="g" d="M1815.841,566.369a23.711,23.711,0,0,0,.038-8.231,13.807,13.807,0,0,0-3.974-6.932h7.3a15.742,15.742,0,0,1,.994,7.418,31.145,31.145,0,0,1-1.642,7.745Z"/><path class="g" d="M1828.154,566.369a23.686,23.686,0,0,1-.038-8.231,13.8,13.8,0,0,1,3.973-6.932h-7.3a15.758,15.758,0,0,0-.994,7.418,31.2,31.2,0,0,0,1.642,7.745Z"/><path class="e" d="M1818.622,511.585c-6.585.688-9.952,2.494-10.916,3.1,1.5,3.012,3.564,8.947,3.564,8.947l15.083-1.61s1.762-6.265,2.495-9.238C1827.954,512.24,1825.032,510.916,1818.622,511.585Z"/><path class="h" d="M1828.848,512.78a12.043,12.043,0,0,0,.315-1.486c.017-1.491-4.474-3.326-10.495-2.638-8.9,1.017-12.916,2.638-11.425,5.161.145.246.3.538.463.864.964-.6,4.331-2.408,10.916-3.1C1825.032,510.916,1827.954,512.24,1828.848,512.78Z"/><ellipse class="i" cx="1.529" cy="2.055" rx="1.529" ry="2.055" transform="translate(1831.988 557.032) rotate(-81.044)"/><path class="e" d="M1831.151,547.711a24.032,24.032,0,0,1,1.376,3.517c.153.918,1.147,1.683-1.376,2.371s-12.77,1.147-16.1,0-4.4-2.753-3.785-3.518,2.217-2.37,2.217-2.37Z"/><path class="j" d="M1836.059,536.394a3.823,3.823,0,1,0-1.7-5.132"/><ellipse class="i" cx="18.352" cy="15.293" rx="18.352" ry="15.293" transform="translate(1803.164 520.107)"/><path class="k" d="M1805.868,539.174a3.824,3.824,0,1,1,0-5.407"/><path class="l" d="M1817.344,522.909a9.716,9.716,0,0,1,6.352-.943,2.889,2.889,0,0,1,2.159,1.674c.576,1.462-.653,2.946-1.988,3.42-1.733.614-4.057-1.292-2.789-3.073a1.29,1.29,0,0,1,2.123.127"/><circle class="e" cx="1.893" cy="1.893" r="1.893" transform="translate(1811.27 530.735)"/><circle class="e" cx="1.893" cy="1.893" r="1.893" transform="translate(1828.073 529.76)"/><path class="h" d="M1837.937,547.8l-2.949,11.15,10.029-4.273a.651.651,0,0,0,.2-1.062l-6.2-6.112A.65.65,0,0,0,1837.937,547.8Z"/><path class="m" d="M1818.687,540.294s.578,3.378,4.741,2.966c2.927-.29,2.905-3.807,2.905-3.807"/><circle class="i" cx="2.844" cy="2.844" r="2.844" transform="translate(1833.423 556.064)"/><ellipse class="n" cx="3.004" cy="2.271" rx="3.004" ry="2.271" transform="translate(1810.477 537.221)"/><ellipse class="n" cx="3.004" cy="2.271" rx="3.004" ry="2.271" transform="translate(1828.977 535.308)"/></g><g class="o"><path class="e" d="M1831.66,581.513s4.129-9.171,7.723-9.2-3.518-4.158-4.894-2.705-4.664,10.65-4.664,10.65Z"/><path class="f" d="M1807.773,565.555s-.417,1.759,1.239,7.418a21.4,21.4,0,0,0,5.473,9.1h15.036a21.408,21.408,0,0,0,5.472-9.1c1.657-5.659,1.239-7.418,1.239-7.418"/><path class="g" d="M1828.159,565.555a23.711,23.711,0,0,0-.038,8.231,13.807,13.807,0,0,0,3.974,6.932h-7.3a15.742,15.742,0,0,1-.994-7.418,31.145,31.145,0,0,1,1.642-7.745Z"/><path class="g" d="M1815.846,565.555a23.686,23.686,0,0,1,.038,8.231,13.8,13.8,0,0,1-3.973,6.932h7.3a15.758,15.758,0,0,0,.994-7.418,31.2,31.2,0,0,0-1.642-7.745Z"/><path class="p" d="M1825.378,620.339c6.585-.688,9.952-2.494,10.916-3.095-1.5-3.013-3.564-8.948-3.564-8.948l-15.083,1.61s-1.762,6.265-2.495,9.238C1816.046,619.684,1818.968,621.008,1825.378,620.339Z"/><path class="h" d="M1815.152,619.144a12.043,12.043,0,0,0-.315,1.486c-.017,1.491,4.474,3.326,10.495,2.638,8.9-1.017,12.916-2.638,11.425-5.161-.145-.246-.3-.538-.463-.863-.964.6-4.331,2.407-10.916,3.095C1818.968,621.008,1816.046,619.684,1815.152,619.144Z"/><ellipse class="i" cx="1.529" cy="2.055" rx="1.529" ry="2.055" transform="translate(1807.477 577.272) rotate(-81.044)"/><path class="e" d="M1812.849,584.213a24.035,24.035,0,0,1-1.376-3.517c-.153-.918-1.147-1.683,1.376-2.371s12.77-1.147,16.1,0,4.4,2.753,3.785,3.518-2.217,2.37-2.217,2.37Z"/><path class="j" d="M1807.941,595.53a3.823,3.823,0,1,0,1.7,5.132"/><ellipse class="i" cx="18.352" cy="15.293" rx="18.352" ry="15.293" transform="translate(1804.132 581.231)"/><path class="k" d="M1838.132,592.75a3.823,3.823,0,1,1,0,5.407"/><path class="l" d="M1826.656,609.015a9.716,9.716,0,0,1-6.352.943,2.889,2.889,0,0,1-2.159-1.674c-.576-1.462.653-2.946,1.988-3.42,1.733-.614,4.057,1.292,2.789,3.073a1.29,1.29,0,0,1-2.123-.127"/><circle class="e" cx="1.893" cy="1.893" r="1.893" transform="translate(1828.945 597.404)"/><circle class="e" cx="1.893" cy="1.893" r="1.893" transform="translate(1812.142 598.379)"/><path class="h" d="M1806.063,584.123l2.949-11.15-10.029,4.274a.65.65,0,0,0-.2,1.061l6.2,6.112A.65.65,0,0,0,1806.063,584.123Z"/><path class="m" d="M1825.313,591.63s-.578-3.378-4.741-2.966c-2.927.29-2.905,3.808-2.905,3.808"/><circle class="i" cx="2.844" cy="2.844" r="2.844" transform="translate(1804.89 570.173)"/><ellipse class="n" cx="3.004" cy="2.271" rx="3.004" ry="2.271" transform="translate(1827.515 590.162)"/><ellipse class="n" cx="3.004" cy="2.271" rx="3.004" ry="2.271" transform="translate(1809.015 592.075)"/></g></g><path class="g" d="M1872,475.962H1772a10,10,0,0,0-10,10v99.763l120-38.849V485.962A10,10,0,0,0,1872,475.962Z" transform="translate(-1762 -475.962)"/><g transform="translate(-1762 -475.962)"><text class="q" transform="translate(1863.938 512.278)"><tspan x="-3.762" y="0">K</tspan></text><path class="p" d="M1863.938,499.234l-5.53-5.256a3.285,3.285,0,0,1,0-4.812,3.714,3.714,0,0,1,5.064,0l.466.443.465-.443a3.714,3.714,0,0,1,5.064,0,3.285,3.285,0,0,1,0,4.812Z"/><text class="q" transform="translate(1780.063 619.644) rotate(180)"><tspan x="-3.762" y="0">K</tspan></text><path class="p" d="M1780.062,632.69l5.53,5.256a3.285,3.285,0,0,1,0,4.812,3.714,3.714,0,0,1-5.064,0l-.466-.442-.465.442a3.714,3.714,0,0,1-5.064,0,3.285,3.285,0,0,1,0-4.812Z"/></g></g></svg>