<svg xmlns="http://www.w3.org/2000/svg" xmlns:xlink="http://www.w3.org/1999/xlink" width="120" height="180" viewBox="0 0 120 180"><defs><style>.a{fill:none;}.b{clip-path:url(#a);}.c{fill:#f7a4af;stroke:#fff;stroke-miterlimit:10;}.d,.e,.f{fill:#fff;}.d{opacity:0.2;}.e{font-size:12px;font-family:Roboto-Regular, Roboto;}.g{stroke:none;}</style><clipPath id="a"><rect class="a" width="120" height="180"/></clipPath></defs><g class="b"><g class="c"><rect class="g" width="120" height="180" rx="10"/><rect class="a" x="0.5" y="0.5" width="119" height="179" rx="9.5"/></g><path class="d" d="M1002,475.962H902a10,10,0,0,0-10,10v99.763l120-38.849V485.962A10,10,0,0,0,1002,475.962Z" transform="translate(-892 -475.962)"/><g transform="translate(-892 -475.962)"><text class="e" transform="translate(993.938 512.278)"><tspan x="-3.369" y="0">7</tspan></text><path class="f" d="M993.938,499.234l-5.53-5.256a3.285,3.285,0,0,1,0-4.812,3.714,3.714,0,0,1,5.064,0l.466.443.465-.443a3.714,3.714,0,0,1,5.064,0,3.285,3.285,0,0,1,0,4.812Z"/><text class="e" transform="translate(910.063 619.644) rotate(180)"><tspan x="-3.369" y="0">7</tspan></text><path class="f" d="M910.062,632.69l5.53,5.256a3.285,3.285,0,0,1,0,4.812,3.714,3.714,0,0,1-5.064,0l-.466-.442-.465.442a3.714,3.714,0,0,1-5.064,0,3.285,3.285,0,0,1,0-4.812Z"/></g><g transform="translate(-892 -475.962)"><path class="f" d="M933.333,523.925l-8.293-7.883a4.927,4.927,0,0,1,0-7.219,5.571,5.571,0,0,1,7.6,0l.7.664.7-.664a5.571,5.571,0,0,1,7.6,0,4.928,4.928,0,0,1,0,7.219Z"/><path class="f" d="M933.333,557.482,925.04,549.6a4.927,4.927,0,0,1,0-7.219,5.571,5.571,0,0,1,7.6,0l.7.664.7-.664a5.571,5.571,0,0,1,7.6,0,4.928,4.928,0,0,1,0,7.219Z"/><path class="f" d="M933.333,591.039l-8.293-7.883a4.927,4.927,0,0,1,0-7.219,5.571,5.571,0,0,1,7.6,0l.7.664.7-.664a5.571,5.571,0,0,1,7.6,0,4.928,4.928,0,0,1,0,7.219Z"/><path class="f" d="M933.333,624.6l-8.293-7.883a4.927,4.927,0,0,1,0-7.219,5.571,5.571,0,0,1,7.6,0l.7.664.7-.664a5.571,5.571,0,0,1,7.6,0,4.928,4.928,0,0,1,0,7.219Z"/><path class="f" d="M970.667,540.7l-8.294-7.883a4.928,4.928,0,0,1,0-7.219,5.569,5.569,0,0,1,7.6,0l.7.664.7-.664a5.569,5.569,0,0,1,7.6,0,4.927,4.927,0,0,1,0,7.219Z"/><path class="f" d="M970.667,574.261l-8.294-7.884a4.927,4.927,0,0,1,0-7.218,5.569,5.569,0,0,1,7.6,0l.7.664.7-.664a5.569,5.569,0,0,1,7.6,0,4.926,4.926,0,0,1,0,7.218Z"/><path class="f" d="M970.667,607.817l-8.294-7.883a4.927,4.927,0,0,1,0-7.218,5.569,5.569,0,0,1,7.6,0l.7.664.7-.664a5.569,5.569,0,0,1,7.6,0,4.926,4.926,0,0,1,0,7.218Z"/></g></g></svg>