<svg xmlns="http://www.w3.org/2000/svg" xmlns:xlink="http://www.w3.org/1999/xlink" width="120" height="180" viewBox="0 0 120 180"><defs><style>.a{fill:none;}.b{clip-path:url(#a);}.c{fill:#594fb7;stroke:#fff;stroke-miterlimit:10;}.d,.e,.f{fill:#fff;}.d{opacity:0.2;}.f{font-size:12px;font-family:Roboto-Regular, Roboto;}.g{stroke:none;}</style><clipPath id="a"><rect class="a" width="120" height="180"/></clipPath></defs><g class="b"><g class="c"><rect class="g" width="120" height="180" rx="10"/><rect class="a" x="0.5" y="0.5" width="119" height="179" rx="9.5"/></g><path class="d" d="M277,20H177a10,10,0,0,0-10,10v99.763L287,90.914V30A10,10,0,0,0,277,20Z" transform="translate(-167 -20)"/><g transform="translate(-167 -20)"><path class="e" d="M235.234,73.708,227,66.665l-8.234,7.043a4.528,4.528,0,0,0-.366,6.622,5.115,5.115,0,0,0,6.967.349l.527-.452a6.96,6.96,0,0,1-2.283,4.221l-.349.311a.233.233,0,0,0,.168.406h7.14a.233.233,0,0,0,.168-.406l-.349-.311a6.96,6.96,0,0,1-2.283-4.221l.527.452a5.117,5.117,0,0,0,6.967-.349A4.528,4.528,0,0,0,235.234,73.708Z"/><path class="e" d="M235.234,141.879,227,134.835l-8.234,7.044a4.528,4.528,0,0,0-.366,6.622,5.114,5.114,0,0,0,6.967.348l.527-.451a6.963,6.963,0,0,1-2.283,4.221l-.349.311a.233.233,0,0,0,.168.405h7.14a.233.233,0,0,0,.168-.405l-.349-.311a6.963,6.963,0,0,1-2.283-4.221l.527.451a5.116,5.116,0,0,0,6.967-.348A4.528,4.528,0,0,0,235.234,141.879Z"/></g><g transform="translate(-167 -20)"><text class="f" transform="translate(268.938 56.316)"><tspan x="-3.369" y="0">2</tspan></text><path class="e" d="M274.427,36.268l-5.489-4.7-5.49,4.7a3.019,3.019,0,0,0-.244,4.415,3.411,3.411,0,0,0,4.645.232l.351-.3a4.636,4.636,0,0,1-1.522,2.813l-.233.208a.155.155,0,0,0,.113.27h4.759a.155.155,0,0,0,.113-.27l-.233-.208a4.636,4.636,0,0,1-1.522-2.813l.351.3a3.41,3.41,0,0,0,4.645-.232A3.019,3.019,0,0,0,274.427,36.268Z"/><text class="f" transform="translate(185.063 163.684) rotate(180)"><tspan x="-3.369" y="0">2</tspan></text><path class="e" d="M179.573,183.732l5.489,4.7,5.49-4.7a3.019,3.019,0,0,0,.244-4.415,3.411,3.411,0,0,0-4.645-.232l-.351.3a4.636,4.636,0,0,1,1.522-2.813l.233-.208a.155.155,0,0,0-.113-.27h-4.759a.155.155,0,0,0-.113.27l.233.208a4.636,4.636,0,0,1,1.522,2.813l-.351-.3a3.41,3.41,0,0,0-4.645.232A3.019,3.019,0,0,0,179.573,183.732Z"/></g></g></svg>