<svg xmlns="http://www.w3.org/2000/svg" xmlns:xlink="http://www.w3.org/1999/xlink" width="120" height="180" viewBox="0 0 120 180"><defs><style>.a,.k,.m,.n{fill:none;}.b{clip-path:url(#a);}.c,.f,.l{fill:#594fb7;}.c{stroke:#fff;}.c,.e,.h,.i,.l,.m,.n{stroke-miterlimit:10;}.d{clip-path:url(#b);}.e{fill:#afafd3;}.e,.h,.i,.j,.k,.l,.m,.n{stroke:#594fb7;}.g{fill:#f7a4af;}.h,.i,.j,.q,.r,.s{fill:#fff;}.h,.k{stroke-width:0.742px;}.j,.k{stroke-linecap:round;stroke-linejoin:round;}.n{stroke-width:0.5px;}.o{fill:#f5ccd0;opacity:0.7;}.p{clip-path:url(#c);}.q{font-size:12px;font-family:Roboto-Regular, Roboto;}.s{opacity:0.2;}.t{stroke:none;}</style><clipPath id="a"><rect class="a" width="120" height="180"/></clipPath><clipPath id="b"><rect class="a" width="53.204" height="71.028" transform="translate(1505.037 38.968)"/></clipPath><clipPath id="c"><rect class="a" width="53.204" height="71.028" transform="translate(1558.963 181.032) rotate(180)"/></clipPath></defs><g class="b"><g class="c"><rect class="t" width="120" height="180" rx="10"/><rect class="a" x="0.5" y="0.5" width="119" height="179" rx="9.5"/></g><g transform="translate(-1472 -20)"><g class="d"><path class="e" d="M1547.892,110.4s.466-1.964-1.385-8.283a23.9,23.9,0,0,0-6.11-10.157h-16.791a23.91,23.91,0,0,0-6.111,10.157c-1.85,6.319-1.384,8.283-1.384,8.283"/><path class="f" d="M1523.466,91.963s5.714,4.873,7.858,10.013a29.743,29.743,0,0,1,2.373,8.427h-6.805a13.4,13.4,0,0,0-1.357-9.205,17.371,17.371,0,0,0-4.849-5.943Z"/><path class="f" d="M1540.537,91.963s-5.714,4.873-7.858,10.013a29.773,29.773,0,0,0-2.374,8.427h6.806a13.4,13.4,0,0,1,1.356-9.205,17.382,17.382,0,0,1,4.849-5.943Z"/><path class="g" d="M1535.564,49.125a16.908,16.908,0,0,1-5.726-5.861,16.918,16.918,0,0,1-5.727,5.861c-4.293,2.879-10,0-10,0l2.565,9.05,13.165-3.394L1543,58.175l2.564-9.05S1539.858,52,1535.564,49.125Z"/><path class="h" d="M1548.608,79.594a3.892,3.892,0,1,0-1.733-5.222"/><ellipse class="i" cx="21.661" cy="18.072" rx="21.661" ry="18.072" transform="translate(1509.601 55.377)"/><path class="j" d="M1515.549,82.89a3.891,3.891,0,1,1,0-5.5"/><circle class="f" cx="1.893" cy="1.893" r="1.893" transform="translate(1521.89 74.914)"/><circle class="f" cx="1.893" cy="1.893" r="1.893" transform="translate(1538.693 73.939)"/><path class="k" d="M1528.587,83.813s.577,3.378,4.741,2.966c2.926-.289,2.905-3.807,2.905-3.807"/><path class="f" d="M1521.961,89.349a1.581,1.581,0,0,0-1.386.49c-1.459,1.582-4.726,5.866.678,7.718,4.838,1.658,10.236-1.331,13.458-3.662a1.6,1.6,0,0,0-.722-2.87Z"/><path class="f" d="M1540.784,89.757a1.151,1.151,0,0,1,1,.353c1.252,1.325,4.484,5.343-.509,7.054-4.663,1.6-9.905-1.6-12.7-3.732a1.144,1.144,0,0,1,.533-2.047Z"/><path class="l" d="M1549.072,60.067c-2.609-1.825-6.982-5.177-14.5-5.747.064-.1.129-.2.192-.313,1.251-2.164-.159-3.387-.661-1.73-.293.965-1.991,1.62-3.359,2-.3.015-.6.034-.91.057-10.491.8-14.579,3.326-18.327,8.717s-1.931,14.406-1.931,14.406l2.97-1.015,1.607.367s4.848-10.087,6.166-10.546,2.848,3.376,3.46,2.72,2.861-6.505,4.145-6.391,10.5,4.588,10.766,4.015.942-3.674,1.464-4.016,4.741,3.71,6.188,5.01,6.8,4.912,7.447,4.425-.471-4.846-1.745-6.566l-1.273-1.721s3.95-.159,4.441-1.169S1552.187,62.246,1549.072,60.067Z"/><path class="f" d="M1548.184,108.428l-1.459-.255a.259.259,0,0,1-.212-.292l1.532-11a.262.262,0,0,1,.3-.221l2.219.388a.261.261,0,0,1,.21.31l-2.294,10.869A.26.26,0,0,1,1548.184,108.428Z"/><path class="m" d="M1550.49,97.621a3.609,3.609,0,0,1,3.075,4.484c-.7,4.007-4.823,3.718-4.823,3.718"/><path class="i" d="M1551.64,95.994l-3.944-.69,2.441-16.576,2.828-1.929L1555,79.417Z"/><ellipse class="i" cx="4.056" cy="3.33" rx="4.056" ry="3.33" transform="translate(1543.588 104.574) rotate(-63.883)"/><path class="n" d="M1550.137,78.728l2.178,1.791-2.644,15.116"/><line class="n" x1="2.683" y2="1.101" transform="translate(1552.315 79.417)"/><path class="g" d="M1552.268,98.025,1546.415,97a.259.259,0,0,1-.214-.275l.194-2.692a.261.261,0,0,1,.3-.238l6.389,1.118a.259.259,0,0,1,.2.326l-.731,2.6A.259.259,0,0,1,1552.268,98.025Z"/><ellipse class="o" cx="2.271" cy="3.004" rx="2.271" ry="3.004" transform="matrix(0.053, -0.999, 0.999, 0.053, 1520.708, 83.999)"/><ellipse class="o" cx="2.271" cy="3.004" rx="2.271" ry="3.004" transform="matrix(0.053, -0.999, 0.999, 0.053, 1539.283, 83.072)"/></g><g class="p"><path class="e" d="M1516.108,109.6s-.466,1.964,1.385,8.283a23.9,23.9,0,0,0,6.11,10.157h16.791a23.91,23.91,0,0,0,6.111-10.157c1.85-6.319,1.384-8.283,1.384-8.283"/><path class="f" d="M1540.534,128.037s-5.714-4.873-7.858-10.013a29.743,29.743,0,0,1-2.373-8.427h6.805a13.4,13.4,0,0,0,1.357,9.205,17.371,17.371,0,0,0,4.849,5.943Z"/><path class="f" d="M1523.463,128.037s5.714-4.873,7.858-10.013a29.773,29.773,0,0,0,2.374-8.427h-6.806a13.4,13.4,0,0,1-1.356,9.205,17.382,17.382,0,0,1-4.849,5.943Z"/><path class="g" d="M1528.436,170.875a16.908,16.908,0,0,1,5.726,5.861,16.918,16.918,0,0,1,5.727-5.861c4.293-2.879,10,0,10,0l-2.565-9.05-13.165,3.394L1521,161.825l-2.564,9.05S1524.142,168,1528.436,170.875Z"/><path class="h" d="M1515.392,140.406a3.891,3.891,0,1,0,1.733,5.222"/><ellipse class="i" cx="21.661" cy="18.072" rx="21.661" ry="18.072" transform="translate(1511.077 128.478)"/><path class="j" d="M1548.451,137.11a3.891,3.891,0,1,1,0,5.5"/><circle class="f" cx="1.893" cy="1.893" r="1.893" transform="translate(1538.325 141.301)"/><circle class="f" cx="1.893" cy="1.893" r="1.893" transform="translate(1521.521 142.276)"/><path class="k" d="M1535.413,136.187s-.577-3.378-4.741-2.966c-2.926.289-2.905,3.807-2.905,3.807"/><path class="f" d="M1542.039,130.651a1.581,1.581,0,0,0,1.386-.49c1.459-1.582,4.726-5.866-.678-7.718-4.838-1.658-10.236,1.331-13.458,3.662a1.6,1.6,0,0,0,.722,2.87Z"/><path class="f" d="M1523.216,130.243a1.151,1.151,0,0,1-1-.353c-1.252-1.325-4.484-5.343.509-7.054,4.663-1.6,9.905,1.6,12.7,3.732a1.144,1.144,0,0,1-.533,2.047Z"/><path class="l" d="M1514.928,159.933c2.609,1.825,6.982,5.177,14.5,5.747-.064.1-.129.2-.192.313-1.251,2.164.159,3.387.661,1.73.293-.965,1.991-1.62,3.359-2,.3-.015.6-.034.91-.057,10.491-.8,14.579-3.326,18.327-8.717s1.931-14.406,1.931-14.406l-2.97,1.015-1.607-.367s-4.848,10.087-6.166,10.546-2.848-3.376-3.46-2.72-2.861,6.505-4.145,6.391-10.5-4.588-10.766-4.015-.942,3.674-1.464,4.016-4.741-3.71-6.188-5.01-6.8-4.912-7.447-4.425.471,4.846,1.745,6.566l1.273,1.721s-3.95.159-4.441,1.169S1511.813,157.754,1514.928,159.933Z"/><path class="f" d="M1515.816,111.572l1.459.255a.259.259,0,0,1,.212.292l-1.532,11a.262.262,0,0,1-.3.221l-2.219-.388a.261.261,0,0,1-.21-.31l2.294-10.869A.26.26,0,0,1,1515.816,111.572Z"/><path class="m" d="M1513.51,122.379a3.609,3.609,0,0,1-3.075-4.484c.7-4.007,4.823-3.718,4.823-3.718"/><path class="i" d="M1512.36,124.006l3.944.69-2.441,16.576-2.828,1.929L1509,140.583Z"/><ellipse class="i" cx="4.056" cy="3.33" rx="4.056" ry="3.33" transform="translate(1510.861 119.778) rotate(-63.883)"/><path class="n" d="M1513.863,141.273l-2.178-1.791,2.644-15.116"/><line class="n" y1="1.101" x2="2.683" transform="translate(1509.002 139.482)"/><path class="g" d="M1511.732,121.975l5.853,1.024a.259.259,0,0,1,.214.275l-.194,2.692a.261.261,0,0,1-.3.238l-6.389-1.118a.259.259,0,0,1-.2-.326l.731-2.6A.259.259,0,0,1,1511.732,121.975Z"/><ellipse class="o" cx="2.271" cy="3.004" rx="2.271" ry="3.004" transform="matrix(0.053, -0.999, 0.999, 0.053, 1537.052, 140.216)"/><ellipse class="o" cx="2.271" cy="3.004" rx="2.271" ry="3.004" transform="matrix(0.053, -0.999, 0.999, 0.053, 1518.476, 141.143)"/></g></g><g transform="translate(-1472 -20)"><text class="q" transform="translate(1573.938 56.316)"><tspan x="-3.311" y="0">J</tspan></text><path class="r" d="M1579.427,36.268l-5.489-4.7-5.49,4.7a3.019,3.019,0,0,0-.244,4.415,3.411,3.411,0,0,0,4.645.232l.351-.3a4.635,4.635,0,0,1-1.522,2.813l-.233.208a.156.156,0,0,0,.113.27h4.759a.156.156,0,0,0,.113-.27l-.233-.208a4.635,4.635,0,0,1-1.522-2.813l.351.3a3.41,3.41,0,0,0,4.645-.232A3.019,3.019,0,0,0,1579.427,36.268Z"/><text class="q" transform="translate(1490.063 163.684) rotate(180)"><tspan x="-3.311" y="0">J</tspan></text><path class="r" d="M1484.573,183.732l5.489,4.7,5.49-4.7a3.019,3.019,0,0,0,.244-4.415,3.411,3.411,0,0,0-4.645-.232l-.351.3a4.635,4.635,0,0,1,1.522-2.813l.233-.208a.156.156,0,0,0-.113-.27h-4.759a.156.156,0,0,0-.113.27l.233.208a4.635,4.635,0,0,1,1.522,2.813l-.351-.3a3.41,3.41,0,0,0-4.645.232A3.019,3.019,0,0,0,1484.573,183.732Z"/></g><path class="s" d="M1582,20H1482a10,10,0,0,0-10,10v99.763l120-38.849V30A10,10,0,0,0,1582,20Z" transform="translate(-1472 -20)"/></g></svg>