<svg xmlns="http://www.w3.org/2000/svg" xmlns:xlink="http://www.w3.org/1999/xlink" width="120" height="180" viewBox="0 0 120 180"><defs><style>.a,.o,.p{fill:none;}.b{clip-path:url(#a);}.c,.g{fill:#594fb7;}.c{stroke:#fff;}.c,.h,.l,.m{stroke-miterlimit:10;}.d,.e,.i,.l,.m,.n{fill:#fff;}.d{font-size:12px;font-family:Roboto-Regular, Roboto;}.f{clip-path:url(#b);}.h,.j{fill:#afafd3;}.h,.l,.m,.n,.o,.p{stroke:#594fb7;}.i{opacity:0.2;}.k{fill:#f7a4af;}.m,.p{stroke-width:0.742px;}.n,.o,.p{stroke-linecap:round;stroke-linejoin:round;}.o{stroke-width:0.75px;}.q{fill:#f5ccd0;opacity:0.7;}.r{clip-path:url(#c);}.s{stroke:none;}</style><clipPath id="a"><rect class="a" width="120" height="180"/></clipPath><clipPath id="b"><rect class="a" width="50.505" height="59.85" transform="translate(1796.78 50.15)"/></clipPath><clipPath id="c"><rect class="a" width="50.505" height="59.85" transform="translate(1847.22 169.85) rotate(180)"/></clipPath></defs><g class="b"><g class="c"><rect class="s" width="120" height="180" rx="10"/><rect class="a" x="0.5" y="0.5" width="119" height="179" rx="9.5"/></g><g transform="translate(-1762 -20)"><text class="d" transform="translate(1863.938 56.316)"><tspan x="-3.762" y="0">K</tspan></text><path class="e" d="M1869.427,36.268l-5.489-4.7-5.49,4.7a3.019,3.019,0,0,0-.244,4.415,3.411,3.411,0,0,0,4.645.232l.351-.3a4.635,4.635,0,0,1-1.522,2.813l-.233.208a.156.156,0,0,0,.113.27h4.759a.156.156,0,0,0,.113-.27l-.233-.208a4.635,4.635,0,0,1-1.522-2.813l.351.3a3.41,3.41,0,0,0,4.645-.232A3.019,3.019,0,0,0,1869.427,36.268Z"/><text class="d" transform="translate(1780.063 163.684) rotate(180)"><tspan x="-3.762" y="0">K</tspan></text><path class="e" d="M1774.573,183.732l5.489,4.7,5.49-4.7a3.019,3.019,0,0,0,.244-4.415,3.411,3.411,0,0,0-4.645-.232l-.351.3a4.635,4.635,0,0,1,1.522-2.813l.233-.208a.156.156,0,0,0-.113-.27h-4.759a.156.156,0,0,0-.113.27l.233.208a4.635,4.635,0,0,1,1.522,2.813l-.351-.3a3.41,3.41,0,0,0-4.645.232A3.019,3.019,0,0,0,1774.573,183.732Z"/></g><g transform="translate(-1762 -20)"><g class="f"><path class="g" d="M1812.34,94.449s-4.129,9.171-7.723,9.2,3.518,4.158,4.894,2.7,4.664-10.65,4.664-10.65Z"/><path class="h" d="M1836.227,110.407s.417-1.759-1.239-7.418a21.4,21.4,0,0,0-5.473-9.1h-15.036a21.408,21.408,0,0,0-5.472,9.1c-1.657,5.659-1.239,7.418-1.239,7.418"/><path class="i" d="M1815.841,110.407a23.711,23.711,0,0,0,.038-8.231,13.806,13.806,0,0,0-3.974-6.932h7.3a15.742,15.742,0,0,1,.994,7.418,31.145,31.145,0,0,1-1.642,7.745Z"/><path class="i" d="M1828.154,110.407a23.686,23.686,0,0,1-.038-8.231,13.8,13.8,0,0,1,3.973-6.932h-7.3a15.758,15.758,0,0,0-.994,7.418,31.2,31.2,0,0,0,1.642,7.745Z"/><path class="j" d="M1818.622,55.623c-6.585.688-9.952,2.494-10.916,3.095,1.5,3.013,3.564,8.948,3.564,8.948l15.083-1.61s1.762-6.265,2.495-9.238C1827.954,56.278,1825.032,54.954,1818.622,55.623Z"/><path class="k" d="M1828.848,56.818a12.043,12.043,0,0,0,.315-1.486c.017-1.491-4.474-3.326-10.495-2.638-8.9,1.017-12.916,2.638-11.425,5.161.145.246.3.538.463.863.964-.6,4.331-2.407,10.916-3.095C1825.032,54.954,1827.954,56.278,1828.848,56.818Z"/><ellipse class="l" cx="1.529" cy="2.055" rx="1.529" ry="2.055" transform="translate(1831.988 101.07) rotate(-81.044)"/><path class="g" d="M1831.151,91.749a24.034,24.034,0,0,1,1.376,3.517c.153.918,1.147,1.683-1.376,2.371s-12.77,1.147-16.1,0-4.4-2.753-3.785-3.518,2.217-2.37,2.217-2.37Z"/><path class="m" d="M1836.059,80.432a3.823,3.823,0,1,0-1.7-5.132"/><ellipse class="l" cx="18.352" cy="15.293" rx="18.352" ry="15.293" transform="translate(1803.164 64.145)"/><path class="n" d="M1805.868,83.212a3.824,3.824,0,1,1,0-5.407"/><path class="o" d="M1817.344,66.947A9.716,9.716,0,0,1,1823.7,66a2.889,2.889,0,0,1,2.159,1.674c.576,1.462-.653,2.946-1.988,3.42-1.733.614-4.057-1.292-2.789-3.073a1.29,1.29,0,0,1,2.123.127"/><circle class="g" cx="1.893" cy="1.893" r="1.893" transform="translate(1811.27 74.773)"/><circle class="g" cx="1.893" cy="1.893" r="1.893" transform="translate(1828.073 73.798)"/><path class="k" d="M1837.937,91.839l-2.949,11.15,10.029-4.273a.651.651,0,0,0,.2-1.062l-6.2-6.112A.65.65,0,0,0,1837.937,91.839Z"/><path class="p" d="M1818.687,84.332s.578,3.378,4.741,2.966c2.927-.29,2.905-3.807,2.905-3.807"/><circle class="l" cx="2.844" cy="2.844" r="2.844" transform="translate(1833.423 100.102)"/><ellipse class="q" cx="3.004" cy="2.271" rx="3.004" ry="2.271" transform="translate(1810.477 81.259)"/><ellipse class="q" cx="3.004" cy="2.271" rx="3.004" ry="2.271" transform="translate(1828.977 79.346)"/></g><g class="r"><path class="g" d="M1831.66,125.551s4.129-9.171,7.723-9.2-3.518-4.158-4.894-2.7-4.664,10.65-4.664,10.65Z"/><path class="h" d="M1807.773,109.593s-.417,1.759,1.239,7.418a21.4,21.4,0,0,0,5.473,9.1h15.036a21.408,21.408,0,0,0,5.472-9.1c1.657-5.659,1.239-7.418,1.239-7.418"/><path class="i" d="M1828.159,109.593a23.711,23.711,0,0,0-.038,8.231,13.806,13.806,0,0,0,3.974,6.932h-7.3a15.742,15.742,0,0,1-.994-7.418,31.145,31.145,0,0,1,1.642-7.745Z"/><path class="i" d="M1815.846,109.593a23.686,23.686,0,0,1,.038,8.231,13.8,13.8,0,0,1-3.973,6.932h7.3a15.758,15.758,0,0,0,.994-7.418,31.2,31.2,0,0,0-1.642-7.745Z"/><path class="j" d="M1825.378,164.377c6.585-.688,9.952-2.494,10.916-3.1-1.5-3.013-3.564-8.948-3.564-8.948l-15.083,1.61s-1.762,6.265-2.495,9.238C1816.046,163.722,1818.968,165.046,1825.378,164.377Z"/><path class="k" d="M1815.152,163.182a12.043,12.043,0,0,0-.315,1.486c-.017,1.491,4.474,3.326,10.495,2.638,8.9-1.017,12.916-2.638,11.425-5.161-.145-.246-.3-.538-.463-.863-.964.6-4.331,2.407-10.916,3.1C1818.968,165.046,1816.046,163.722,1815.152,163.182Z"/><ellipse class="l" cx="1.529" cy="2.055" rx="1.529" ry="2.055" transform="translate(1807.477 121.31) rotate(-81.044)"/><path class="g" d="M1812.849,128.251a24.034,24.034,0,0,1-1.376-3.517c-.153-.918-1.147-1.683,1.376-2.371s12.77-1.147,16.1,0,4.4,2.753,3.785,3.518-2.217,2.37-2.217,2.37Z"/><path class="m" d="M1807.941,139.568a3.823,3.823,0,1,0,1.7,5.132"/><ellipse class="l" cx="18.352" cy="15.293" rx="18.352" ry="15.293" transform="translate(1804.132 125.269)"/><path class="n" d="M1838.132,136.788a3.824,3.824,0,1,1,0,5.407"/><path class="o" d="M1826.656,153.053a9.716,9.716,0,0,1-6.352.943,2.889,2.889,0,0,1-2.159-1.674c-.576-1.462.653-2.946,1.988-3.42,1.733-.614,4.057,1.292,2.789,3.073a1.29,1.29,0,0,1-2.123-.127"/><circle class="g" cx="1.893" cy="1.893" r="1.893" transform="translate(1828.945 141.442)"/><circle class="g" cx="1.893" cy="1.893" r="1.893" transform="translate(1812.142 142.416)"/><path class="k" d="M1806.063,128.161l2.949-11.15-10.029,4.273a.651.651,0,0,0-.2,1.062l6.2,6.112A.65.65,0,0,0,1806.063,128.161Z"/><path class="p" d="M1825.313,135.668s-.578-3.378-4.741-2.966c-2.927.29-2.905,3.807-2.905,3.807"/><circle class="l" cx="2.844" cy="2.844" r="2.844" transform="translate(1804.89 114.211)"/><ellipse class="q" cx="3.004" cy="2.271" rx="3.004" ry="2.271" transform="translate(1827.515 134.2)"/><ellipse class="q" cx="3.004" cy="2.271" rx="3.004" ry="2.271" transform="translate(1809.015 136.113)"/></g></g><path class="i" d="M1872,20H1772a10,10,0,0,0-10,10v99.763l120-38.849V30A10,10,0,0,0,1872,20Z" transform="translate(-1762 -20)"/></g></svg>