<svg xmlns="http://www.w3.org/2000/svg" xmlns:xlink="http://www.w3.org/1999/xlink" width="120" height="180" viewBox="0 0 120 180"><defs><style>.a{fill:none;}.b{clip-path:url(#a);}.c{fill:#594fb7;stroke:#fff;stroke-miterlimit:10;}.d,.e,.f{fill:#fff;}.d{opacity:0.2;}.e{font-size:12px;font-family:Roboto-Regular, Roboto;}.g{stroke:none;}</style><clipPath id="a"><rect class="a" width="120" height="180"/></clipPath></defs><g class="b"><g class="c"><rect class="g" width="120" height="180" rx="10"/><rect class="a" x="0.5" y="0.5" width="119" height="179" rx="9.5"/></g><path class="d" d="M567,20H467a10,10,0,0,0-10,10v99.763L577,90.914V30A10,10,0,0,0,567,20Z" transform="translate(-457 -20)"/><g transform="translate(-457 -20)"><text class="e" transform="translate(558.938 56.316)"><tspan x="-3.369" y="0">4</tspan></text><path class="f" d="M564.427,36.268l-5.489-4.7-5.49,4.7a3.019,3.019,0,0,0-.244,4.415,3.411,3.411,0,0,0,4.645.232l.351-.3a4.636,4.636,0,0,1-1.522,2.813l-.233.208a.155.155,0,0,0,.113.27h4.759a.155.155,0,0,0,.113-.27l-.233-.208a4.636,4.636,0,0,1-1.522-2.813l.351.3a3.41,3.41,0,0,0,4.645-.232A3.019,3.019,0,0,0,564.427,36.268Z"/><text class="e" transform="translate(475.063 163.684) rotate(180)"><tspan x="-3.369" y="0">4</tspan></text><path class="f" d="M469.573,183.732l5.489,4.7,5.49-4.7a3.019,3.019,0,0,0,.244-4.415,3.411,3.411,0,0,0-4.645-.232l-.351.3a4.636,4.636,0,0,1,1.522-2.813l.233-.208a.155.155,0,0,0-.113-.27h-4.759a.155.155,0,0,0-.113.27l.233.208a4.636,4.636,0,0,1,1.522,2.813l-.351-.3a3.41,3.41,0,0,0-4.645.232A3.019,3.019,0,0,0,469.573,183.732Z"/></g><g transform="translate(-457 -20)"><path class="f" d="M506.567,73.708l-8.234-7.043L490.1,73.708a4.528,4.528,0,0,0-.367,6.622,5.115,5.115,0,0,0,6.967.349l.528-.452a6.961,6.961,0,0,1-2.284,4.221l-.349.311a.233.233,0,0,0,.169.406H501.9a.233.233,0,0,0,.169-.406l-.349-.311a6.957,6.957,0,0,1-2.284-4.221l.527.452a5.118,5.118,0,0,0,6.968-.349A4.529,4.529,0,0,0,506.567,73.708Z"/><path class="f" d="M506.567,141.879l-8.234-7.044-8.233,7.044a4.528,4.528,0,0,0-.367,6.622,5.114,5.114,0,0,0,6.967.348l.528-.451a6.964,6.964,0,0,1-2.284,4.221l-.349.311a.233.233,0,0,0,.169.405H501.9a.233.233,0,0,0,.169-.405l-.349-.311a6.959,6.959,0,0,1-2.284-4.221l.527.451a5.117,5.117,0,0,0,6.968-.348A4.529,4.529,0,0,0,506.567,141.879Z"/><path class="f" d="M543.9,73.708l-8.233-7.043-8.234,7.043a4.529,4.529,0,0,0-.367,6.622,5.117,5.117,0,0,0,6.968.349l.527-.452a6.956,6.956,0,0,1-2.284,4.221l-.349.311a.234.234,0,0,0,.169.406h7.139a.234.234,0,0,0,.169-.406l-.349-.311a6.961,6.961,0,0,1-2.284-4.221l.528.452a5.117,5.117,0,0,0,6.967-.349A4.528,4.528,0,0,0,543.9,73.708Z"/><path class="f" d="M543.9,141.879l-8.233-7.044-8.234,7.044a4.529,4.529,0,0,0-.367,6.622,5.116,5.116,0,0,0,6.968.348l.527-.451a6.959,6.959,0,0,1-2.284,4.221l-.349.311a.233.233,0,0,0,.169.405h7.139a.233.233,0,0,0,.169-.405l-.349-.311a6.964,6.964,0,0,1-2.284-4.221l.528.451a5.116,5.116,0,0,0,6.967-.348A4.528,4.528,0,0,0,543.9,141.879Z"/></g></g></svg>