<svg xmlns="http://www.w3.org/2000/svg" xmlns:xlink="http://www.w3.org/1999/xlink" width="120" height="180" viewBox="0 0 120 180"><defs><style>.a,.l,.n{fill:none;}.b{clip-path:url(#a);}.c,.f{fill:#594fb7;}.c{stroke:#fff;}.c,.g,.h,.i,.j{stroke-miterlimit:10;}.d{clip-path:url(#b);}.e{fill:#f7a4af;}.g,.h,.m{fill:#afafd3;}.g,.h,.i,.j,.k,.l,.m,.n{stroke:#594fb7;}.h,.i,.l{stroke-width:0.742px;}.i,.j,.k,.q,.r,.s{fill:#fff;}.k,.l,.m,.n{stroke-linecap:round;stroke-linejoin:round;}.o{fill:#f5ccd0;opacity:0.7;}.p{clip-path:url(#c);}.q{font-size:12px;font-family:Roboto-Regular, Roboto;}.s{opacity:0.2;}.t{stroke:none;}</style><clipPath id="a"><rect class="a" width="120" height="180"/></clipPath><clipPath id="b"><rect class="a" width="55.678" height="65.475" transform="translate(1648.828 44.525)"/></clipPath><clipPath id="c"><rect class="a" width="55.678" height="65.475" transform="translate(1705.172 175.475) rotate(180)"/></clipPath></defs><g class="b"><g class="c"><rect class="t" width="120" height="180" rx="10"/><rect class="a" x="0.5" y="0.5" width="119" height="179" rx="9.5"/></g><g transform="translate(-1617 -20)"><g class="d"><path class="e" d="M1680.56,52c-4.293-2.112-5.726-4.3-5.726-4.3s-1.434,2.187-5.727,4.3-10,0-10,0l2.565,6.636,13.165-2.489L1688,58.632,1690.563,52S1684.854,54.107,1680.56,52Z"/><path class="f" d="M1653.291,100.64c-.924-.739.321-25.372,1.723-32.166s6.127-13.449,20.924-15.032,19.495,11.634,20.189,26.234,2.406,16.084,1.484,16.975-11.647-1.731-11.647-1.731S1654.215,101.379,1653.291,100.64Z"/><path class="g" d="M1692.887,110.4s.466-1.964-1.384-8.282a23.9,23.9,0,0,0-6.111-10.158H1668.6a23.9,23.9,0,0,0-6.111,10.158c-1.85,6.318-1.384,8.282-1.384,8.282"/><path class="f" d="M1668.462,91.959s5.714,4.874,7.858,10.013a29.743,29.743,0,0,1,2.373,8.427h-6.805a13.4,13.4,0,0,0-1.357-9.205,17.384,17.384,0,0,0-4.849-5.943Z"/><path class="f" d="M1685.532,91.959s-5.713,4.874-7.858,10.013a29.745,29.745,0,0,0-2.373,8.427h6.8a13.4,13.4,0,0,1,1.357-9.205,17.382,17.382,0,0,1,4.849-5.943Z"/><path class="h" d="M1662.355,81.228l-6,2.791-.013,2.29a1.582,1.582,0,0,0-2.036.355c-.718.8-1.243,2.226-.484,3.173a2.284,2.284,0,0,0,1.932.695,2.875,2.875,0,0,0,.923-.236.625.625,0,0,0,.162.49c1.1,1.229,3.079,1.272,3.391-.648-.169,1.042.729,1.255,1.569,1.151.448-.056.853-.325,1.281-.387.691-.1.764.343,1.463.379,1.063.054,1.473-1.127,1.558-1.983Z"/><path class="h" d="M1686.078,81.708l6.617.088.95,2.083a1.581,1.581,0,0,1,2-.51c.985.439,2.046,1.522,1.742,2.7a2.285,2.285,0,0,1-1.478,1.426,2.855,2.855,0,0,1-.938.162.629.629,0,0,1,.053.514c-.505,1.574-2.288,2.422-3.36.8.582.882-.149,1.444-.959,1.693-.432.133-.911.054-1.327.172-.672.19-.556.627-1.179.946-.947.484-1.806-.425-2.234-1.171Z"/><path class="i" d="M1693.6,79.59a3.89,3.89,0,1,0-1.734-5.222"/><ellipse class="j" cx="20.493" cy="17.078" rx="20.493" ry="17.078" transform="translate(1655.966 57.363)"/><path class="k" d="M1660.545,82.886a3.891,3.891,0,1,1,0-5.5"/><circle class="f" cx="1.893" cy="1.893" r="1.893" transform="translate(1666.886 74.91)"/><circle class="f" cx="1.893" cy="1.893" r="1.893" transform="translate(1683.689 73.935)"/><path class="l" d="M1673.583,83.809s.577,3.378,4.74,2.966c2.927-.289,2.906-3.807,2.906-3.807"/><path class="g" d="M1671.34,71.3a27.515,27.515,0,0,0,6.292-4.1c.553-.5,2.43-2.709,3.3-2.215a20.565,20.565,0,0,1,1.918,1.778,19,19,0,0,0,2.6,1.7c2.405,1.319,5.131,2.348,7.207,4.181a.378.378,0,0,0,.484.092,7.518,7.518,0,0,1,2.847-.449c.63.131,1.574.562,1.929-.235a1.843,1.843,0,0,0,0-1.19c-.283-1.134-.58-2.216-.974-3.324a16.764,16.764,0,0,0-3.185-5.365,19.486,19.486,0,0,0-10.58-6.258c-8.549-1.776-18.245-.2-24.385,6.429a14.648,14.648,0,0,0-4.152,9.139c-.024.4.149,5.675.583,5.513a25.726,25.726,0,0,1,4.028-.662,25.688,25.688,0,0,0,4.031-1.615C1665.922,73.65,1668.707,72.6,1671.34,71.3Z"/><path class="m" d="M1683.452,62.646c-1.065,3.046-5.481,7.065-8.4,8.442a45.187,45.187,0,0,1-11.928,3.711,24.185,24.185,0,0,1,3.142-9.68"/><path class="f" d="M1665.932,89.52s-6.608,6.025.085,8.319c7.5,2.571,14.516-5.2,14.516-5.2Z"/><path class="f" d="M1686.344,89.675s5.946,5.421-.077,7.486c-6.75,2.313-13.055-4.009-13.055-4.009Z"/><path class="n" d="M1690.327,108.358s1.831-9.922,6.236-13.612"/><path class="e" d="M1691.6,96.772c-.35,0-.724.021-1.1,0a.936.936,0,0,1-.825-1.513,1.882,1.882,0,0,1,1.86-.973c.8.109,1.595.275,2.394.4a5,5,0,0,0,.735,0l.026-.116c-.411-.185-.811-.4-1.235-.549a5.558,5.558,0,0,1-2.4-1.457,1.7,1.7,0,0,1-.532-1.118c-.007-.536.31-.767.8-.552a9.716,9.716,0,0,1,.9.5c.134.077.263.162.449.277a8.509,8.509,0,0,1-.307-.817,1.345,1.345,0,0,1,.207-1.174.724.724,0,0,1,1.068-.247c1.063.562,1.235.823,1.493,2.22.084.46.176.919.287,1.372a6.383,6.383,0,0,0,.252.7l.106-.006c.057-.487.143-.972.163-1.461.025-.638.013-1.279-.012-1.917a1.2,1.2,0,0,1,.742-1.3,4.146,4.146,0,0,1,1.154-.261.537.537,0,0,1,.656.54,13.853,13.853,0,0,1-.054,1.492,6.017,6.017,0,0,1,.582-.438,2.381,2.381,0,0,1,.737-.333.776.776,0,0,1,.947.81,2.46,2.46,0,0,1-1.3,2.153c-.69.378-1.4.724-2.094,1.089a3.093,3.093,0,0,0-.323.225l.039.083c.2-.059.406-.1.6-.179.788-.3,1.563-.64,2.364-.9a2.187,2.187,0,0,1,2.339,1.2.536.536,0,0,1-.261.73,9.8,9.8,0,0,1-1.146.422,2.617,2.617,0,0,1-.376.062c.284.141.5.235.7.35a3.211,3.211,0,0,1,.511.338c.257.218.25.422-.03.613a2.277,2.277,0,0,1-2.374.216c-.828-.4-1.6-.915-2.4-1.381-.088-.052-.17-.115-.346-.235a1.789,1.789,0,0,0,.15.332q.7.863,1.411,1.715c.246.295.585.537.585.971a3.014,3.014,0,0,1-.4,1.741.946.946,0,0,1-1.675-.068c-.156-.288-.3-.585-.468-.925-.045.346-.064.646-.126.937-.164.77-.7.957-1.246.394a6.2,6.2,0,0,1-.874-1.248,1.149,1.149,0,0,1,.063-1.12c.231-.457.511-.89.75-1.344.2-.376.369-.767.551-1.152l-.089-.053-.464.493c-.521.544-1.024,1.106-1.567,1.628a2.9,2.9,0,0,1-2.008.748c-.632.015-.892-.45-.551-.984a3.522,3.522,0,0,1,.553-.6A4.895,4.895,0,0,1,1691.6,96.772Zm4.229-2.177-.267.226.147.291.342-.018.111-.315Z"/><ellipse class="j" cx="3.33" cy="4.056" rx="3.33" ry="4.056" transform="translate(1688.911 100.069) rotate(-18.567)"/><path class="f" d="M1655.466,66.47a32.589,32.589,0,0,1,23.268-9.979c7.7,0,16.67,7.342,16.67,7.342a13.743,13.743,0,0,0-10.375-9.611C1676.517,52.406,1658.986,56.338,1655.466,66.47Z"/><ellipse class="o" cx="2.271" cy="3.004" rx="2.271" ry="3.004" transform="matrix(0.053, -0.999, 0.999, 0.053, 1665.042, 84.344)"/><ellipse class="o" cx="2.271" cy="3.004" rx="2.271" ry="3.004" transform="matrix(0.053, -0.999, 0.999, 0.053, 1683.618, 83.416)"/></g><g class="p"><path class="e" d="M1673.44,168c4.293,2.112,5.726,4.3,5.726,4.3s1.434-2.187,5.727-4.3,10,0,10,0l-2.565-6.636-13.165,2.489L1666,161.368,1663.437,168S1669.146,165.893,1673.44,168Z"/><path class="f" d="M1700.709,119.36c.924.739-.321,25.372-1.723,32.166s-6.127,13.449-20.924,15.032-19.495-11.634-20.189-26.234-2.406-16.084-1.484-16.975,11.647,1.731,11.647,1.731S1699.785,118.621,1700.709,119.36Z"/><path class="g" d="M1661.113,109.6s-.466,1.964,1.384,8.282a23.9,23.9,0,0,0,6.111,10.158h16.79a23.9,23.9,0,0,0,6.111-10.158c1.85-6.318,1.384-8.282,1.384-8.282"/><path class="f" d="M1685.538,128.041s-5.714-4.874-7.858-10.013a29.743,29.743,0,0,1-2.373-8.427h6.805a13.4,13.4,0,0,0,1.357,9.205,17.384,17.384,0,0,0,4.849,5.943Z"/><path class="f" d="M1668.468,128.041s5.713-4.874,7.858-10.013a29.745,29.745,0,0,0,2.373-8.427h-6.8a13.4,13.4,0,0,1-1.357,9.205,17.382,17.382,0,0,1-4.849,5.943Z"/><path class="h" d="M1691.645,138.772l6-2.791.013-2.29a1.582,1.582,0,0,0,2.036-.355c.718-.8,1.243-2.226.484-3.173a2.284,2.284,0,0,0-1.932-.695,2.875,2.875,0,0,0-.923.236.625.625,0,0,0-.162-.49c-1.1-1.229-3.079-1.272-3.391.648.169-1.042-.729-1.255-1.569-1.151-.448.056-.853.325-1.281.387-.691.1-.764-.343-1.463-.379-1.063-.054-1.473,1.127-1.558,1.983Z"/><path class="h" d="M1667.922,138.292l-6.617-.088-.95-2.083a1.581,1.581,0,0,1-2,.51c-.985-.439-2.046-1.522-1.742-2.7a2.285,2.285,0,0,1,1.478-1.426,2.855,2.855,0,0,1,.938-.162.629.629,0,0,1-.053-.514c.505-1.574,2.288-2.422,3.36-.8-.582-.882.149-1.444.959-1.693.432-.133.911-.054,1.327-.172.672-.19.556-.627,1.179-.946.947-.484,1.806.425,2.234,1.171Z"/><path class="i" d="M1660.4,140.41a3.89,3.89,0,1,0,1.734,5.222"/><ellipse class="j" cx="20.493" cy="17.078" rx="20.493" ry="17.078" transform="translate(1657.047 128.482)"/><path class="k" d="M1693.455,137.114a3.891,3.891,0,1,1,0,5.5"/><circle class="f" cx="1.893" cy="1.893" r="1.893" transform="translate(1683.329 141.305)"/><circle class="f" cx="1.893" cy="1.893" r="1.893" transform="translate(1666.526 142.28)"/><path class="l" d="M1680.417,136.191s-.577-3.378-4.74-2.966c-2.927.289-2.906,3.807-2.906,3.807"/><path class="g" d="M1682.66,148.7a27.515,27.515,0,0,0-6.292,4.1c-.553.5-2.43,2.709-3.3,2.215a20.565,20.565,0,0,1-1.918-1.778,19,19,0,0,0-2.6-1.705c-2.405-1.319-5.131-2.348-7.207-4.181a.378.378,0,0,0-.484-.092,7.518,7.518,0,0,1-2.847.449c-.63-.131-1.574-.562-1.929.235a1.843,1.843,0,0,0,0,1.19c.283,1.134.58,2.216.974,3.324a16.764,16.764,0,0,0,3.185,5.365,19.486,19.486,0,0,0,10.58,6.258c8.549,1.776,18.245.2,24.385-6.429a14.648,14.648,0,0,0,4.152-9.139c.024-.4-.149-5.675-.583-5.513a25.725,25.725,0,0,1-4.028.662,25.689,25.689,0,0,0-4.031,1.615C1688.078,146.35,1685.293,147.4,1682.66,148.7Z"/><path class="m" d="M1670.548,157.354c1.065-3.046,5.481-7.065,8.4-8.442a45.187,45.187,0,0,1,11.928-3.711,24.185,24.185,0,0,1-3.142,9.68"/><path class="f" d="M1688.068,130.48s6.608-6.025-.085-8.319c-7.5-2.571-14.516,5.2-14.516,5.2Z"/><path class="f" d="M1667.656,130.325s-5.946-5.421.077-7.486c6.75-2.313,13.055,4.009,13.055,4.009Z"/><path class="n" d="M1663.673,111.642s-1.831,9.922-6.236,13.612"/><path class="e" d="M1662.4,123.228c.35,0,.724-.021,1.1,0a.936.936,0,0,1,.825,1.513,1.882,1.882,0,0,1-1.86.973c-.8-.109-1.595-.275-2.394-.4a5,5,0,0,0-.735,0l-.026.116c.411.185.811.4,1.235.549a5.558,5.558,0,0,1,2.4,1.457,1.7,1.7,0,0,1,.532,1.118c.007.536-.31.767-.8.552a9.71,9.71,0,0,1-.9-.5c-.134-.077-.263-.162-.449-.277a8.509,8.509,0,0,1,.307.817,1.345,1.345,0,0,1-.207,1.174.724.724,0,0,1-1.068.247c-1.063-.562-1.235-.823-1.493-2.22-.084-.46-.176-.919-.287-1.372a6.383,6.383,0,0,0-.252-.7l-.106.006c-.057.487-.143.972-.163,1.461-.025.638-.013,1.279.012,1.917a1.2,1.2,0,0,1-.742,1.3,4.146,4.146,0,0,1-1.154.261.537.537,0,0,1-.656-.54,13.854,13.854,0,0,1,.054-1.492,6.018,6.018,0,0,1-.582.438,2.382,2.382,0,0,1-.737.333.776.776,0,0,1-.947-.81,2.46,2.46,0,0,1,1.3-2.153c.69-.378,1.4-.724,2.094-1.089a3.093,3.093,0,0,0,.323-.225l-.039-.083c-.2.059-.406.1-.6.179-.788.3-1.563.64-2.364.9a2.187,2.187,0,0,1-2.339-1.2.536.536,0,0,1,.261-.73,9.8,9.8,0,0,1,1.146-.422,2.617,2.617,0,0,1,.376-.062c-.284-.141-.5-.235-.7-.35a3.211,3.211,0,0,1-.511-.338c-.257-.218-.25-.422.03-.613a2.277,2.277,0,0,1,2.374-.216c.828.4,1.6.915,2.4,1.381.088.052.17.115.346.235a1.789,1.789,0,0,0-.15-.332q-.7-.863-1.411-1.715c-.246-.295-.585-.537-.585-.971a3.014,3.014,0,0,1,.4-1.741.946.946,0,0,1,1.675.068c.156.288.3.585.468.925.045-.346.064-.646.126-.937.164-.77.7-.957,1.246-.394a6.2,6.2,0,0,1,.874,1.248,1.149,1.149,0,0,1-.063,1.12c-.231.457-.511.89-.75,1.344-.2.376-.369.767-.551,1.152l.089.053.464-.493c.521-.544,1.024-1.106,1.567-1.628a2.9,2.9,0,0,1,2.008-.748c.632-.015.892.45.551.984a3.522,3.522,0,0,1-.553.6A4.895,4.895,0,0,1,1662.4,123.228Zm-4.229,2.177.267-.226-.147-.291-.342.018-.111.315Z"/><ellipse class="j" cx="3.33" cy="4.056" rx="3.33" ry="4.056" transform="translate(1656.193 114.362) rotate(-18.567)"/><path class="f" d="M1698.534,153.53a32.589,32.589,0,0,1-23.268,9.979c-7.7,0-16.67-7.342-16.67-7.342a13.743,13.743,0,0,0,10.375,9.611C1677.483,167.594,1695.014,163.662,1698.534,153.53Z"/><ellipse class="o" cx="2.271" cy="3.004" rx="2.271" ry="3.004" transform="matrix(0.053, -0.999, 0.999, 0.053, 1682.717, 139.872)"/><ellipse class="o" cx="2.271" cy="3.004" rx="2.271" ry="3.004" transform="matrix(0.053, -0.999, 0.999, 0.053, 1664.142, 140.799)"/></g></g><g transform="translate(-1617 -20)"><text class="q" transform="translate(1718.938 56.316)"><tspan x="-4.125" y="0">Q</tspan></text><path class="r" d="M1724.427,36.268l-5.489-4.7-5.49,4.7a3.019,3.019,0,0,0-.244,4.415,3.411,3.411,0,0,0,4.645.232l.351-.3a4.635,4.635,0,0,1-1.522,2.813l-.233.208a.156.156,0,0,0,.113.27h4.759a.156.156,0,0,0,.113-.27l-.233-.208a4.635,4.635,0,0,1-1.522-2.813l.351.3a3.41,3.41,0,0,0,4.645-.232A3.019,3.019,0,0,0,1724.427,36.268Z"/><text class="q" transform="translate(1635.063 163.684) rotate(180)"><tspan x="-4.125" y="0">Q</tspan></text><path class="r" d="M1629.573,183.732l5.489,4.7,5.49-4.7a3.019,3.019,0,0,0,.244-4.415,3.411,3.411,0,0,0-4.645-.232l-.351.3a4.635,4.635,0,0,1,1.522-2.813l.233-.208a.156.156,0,0,0-.113-.27h-4.759a.156.156,0,0,0-.113.27l.233.208a4.635,4.635,0,0,1,1.522,2.813l-.351-.3a3.41,3.41,0,0,0-4.645.232A3.019,3.019,0,0,0,1629.573,183.732Z"/></g><path class="s" d="M1727,20H1627a10,10,0,0,0-10,10v99.763l120-38.849V30A10,10,0,0,0,1727,20Z" transform="translate(-1617 -20)"/></g></svg>