<svg xmlns="http://www.w3.org/2000/svg" xmlns:xlink="http://www.w3.org/1999/xlink" width="120" height="180" viewBox="0 0 120 180"><defs><style>.a{fill:none;}.b{clip-path:url(#a);}.c{fill:#594fb7;stroke:#fff;stroke-miterlimit:10;}.d,.e,.f{fill:#fff;}.d{opacity:0.2;}.e{font-size:12px;font-family:Roboto-Regular, Roboto;}.g{stroke:none;}</style><clipPath id="a"><rect class="a" width="120" height="180"/></clipPath></defs><g class="b"><g class="c"><rect class="g" width="120" height="180" rx="10"/><rect class="a" x="0.5" y="0.5" width="119" height="179" rx="9.5"/></g><path class="d" d="M1292,20H1192a10,10,0,0,0-10,10v99.763l120-38.849V30A10,10,0,0,0,1292,20Z" transform="translate(-1182 -20)"/><g transform="translate(-1182 -20)"><text class="e" transform="translate(1283.938 56.316)"><tspan x="-3.369" y="0">9</tspan></text><path class="f" d="M1289.427,36.268l-5.489-4.7-5.49,4.7a3.019,3.019,0,0,0-.244,4.415,3.411,3.411,0,0,0,4.645.232l.351-.3a4.635,4.635,0,0,1-1.522,2.813l-.233.208a.156.156,0,0,0,.113.27h4.759a.156.156,0,0,0,.113-.27l-.233-.208a4.635,4.635,0,0,1-1.522-2.813l.351.3a3.41,3.41,0,0,0,4.645-.232A3.019,3.019,0,0,0,1289.427,36.268Z"/><text class="e" transform="translate(1200.063 163.684) rotate(180)"><tspan x="-3.369" y="0">9</tspan></text><path class="f" d="M1194.573,183.732l5.489,4.7,5.49-4.7a3.019,3.019,0,0,0,.244-4.415,3.411,3.411,0,0,0-4.645-.232l-.351.3a4.635,4.635,0,0,1,1.522-2.813l.233-.208a.156.156,0,0,0-.113-.27h-4.759a.156.156,0,0,0-.113.27l.233.208a4.635,4.635,0,0,1,1.522,2.813l-.351-.3a3.41,3.41,0,0,0-4.645.232A3.019,3.019,0,0,0,1194.573,183.732Z"/></g><g transform="translate(-1182 -20)"><path class="f" d="M1231.567,44.6l-8.234-7.043L1215.1,44.6a4.528,4.528,0,0,0-.367,6.622,5.115,5.115,0,0,0,6.967.349l.528-.451a6.967,6.967,0,0,1-2.284,4.221l-.349.31a.233.233,0,0,0,.169.406h7.139a.233.233,0,0,0,.169-.406l-.349-.31a6.962,6.962,0,0,1-2.284-4.221l.527.451a5.116,5.116,0,0,0,6.968-.349A4.529,4.529,0,0,0,1231.567,44.6Z"/><path class="f" d="M1231.567,76.2l-8.234-7.043L1215.1,76.2a4.528,4.528,0,0,0-.367,6.622,5.115,5.115,0,0,0,6.967.349l.528-.451a6.968,6.968,0,0,1-2.284,4.221l-.349.31a.233.233,0,0,0,.169.406h7.139a.233.233,0,0,0,.169-.406l-.349-.31a6.962,6.962,0,0,1-2.284-4.221l.527.451a5.116,5.116,0,0,0,6.968-.349A4.529,4.529,0,0,0,1231.567,76.2Z"/><path class="f" d="M1231.567,107.793l-8.234-7.043-8.233,7.043a4.528,4.528,0,0,0-.367,6.622,5.115,5.115,0,0,0,6.967.349l.528-.451a6.967,6.967,0,0,1-2.284,4.221l-.349.31a.233.233,0,0,0,.169.406h7.139a.233.233,0,0,0,.169-.406l-.349-.31a6.962,6.962,0,0,1-2.284-4.221l.527.451a5.116,5.116,0,0,0,6.968-.349A4.529,4.529,0,0,0,1231.567,107.793Z"/><path class="f" d="M1231.567,139.388l-8.234-7.043-8.233,7.043a4.528,4.528,0,0,0-.367,6.622,5.115,5.115,0,0,0,6.967.349l.528-.451a6.967,6.967,0,0,1-2.284,4.221l-.349.311a.233.233,0,0,0,.169.4h7.139a.233.233,0,0,0,.169-.4l-.349-.311a6.962,6.962,0,0,1-2.284-4.221l.527.451a5.116,5.116,0,0,0,6.968-.349A4.529,4.529,0,0,0,1231.567,139.388Z"/><path class="f" d="M1231.567,170.983l-8.234-7.043-8.233,7.043a4.528,4.528,0,0,0-.367,6.622,5.115,5.115,0,0,0,6.967.349l.528-.451a6.967,6.967,0,0,1-2.284,4.221l-.349.311a.233.233,0,0,0,.169.4h7.139a.233.233,0,0,0,.169-.4l-.349-.311a6.962,6.962,0,0,1-2.284-4.221l.527.451a5.116,5.116,0,0,0,6.968-.349A4.529,4.529,0,0,0,1231.567,170.983Z"/><path class="f" d="M1268.9,60.4l-8.233-7.044-8.234,7.044a4.529,4.529,0,0,0-.367,6.622,5.116,5.116,0,0,0,6.968.348l.527-.451a6.959,6.959,0,0,1-2.284,4.221l-.349.311a.233.233,0,0,0,.169.4h7.139a.233.233,0,0,0,.169-.4l-.349-.311a6.965,6.965,0,0,1-2.284-4.221l.528.451a5.116,5.116,0,0,0,6.967-.348A4.528,4.528,0,0,0,1268.9,60.4Z"/><path class="f" d="M1268.9,92l-8.233-7.043L1252.433,92a4.529,4.529,0,0,0-.367,6.622,5.116,5.116,0,0,0,6.968.348l.527-.451a6.959,6.959,0,0,1-2.284,4.221l-.349.311a.233.233,0,0,0,.169.405h7.139a.233.233,0,0,0,.169-.405l-.349-.311a6.965,6.965,0,0,1-2.284-4.221l.528.451a5.116,5.116,0,0,0,6.967-.348A4.528,4.528,0,0,0,1268.9,92Z"/><path class="f" d="M1268.9,123.591l-8.233-7.043-8.234,7.043a4.529,4.529,0,0,0-.367,6.622,5.116,5.116,0,0,0,6.968.348l.527-.451a6.959,6.959,0,0,1-2.284,4.221l-.349.311a.233.233,0,0,0,.169.4h7.139a.233.233,0,0,0,.169-.4l-.349-.311a6.965,6.965,0,0,1-2.284-4.221l.528.451a5.116,5.116,0,0,0,6.967-.348A4.528,4.528,0,0,0,1268.9,123.591Z"/><path class="f" d="M1268.9,155.186l-8.233-7.043-8.234,7.043a4.529,4.529,0,0,0-.367,6.622,5.116,5.116,0,0,0,6.968.348l.527-.451a6.959,6.959,0,0,1-2.284,4.221l-.349.311a.234.234,0,0,0,.169.406h7.139a.234.234,0,0,0,.169-.406l-.349-.311a6.965,6.965,0,0,1-2.284-4.221l.528.451a5.116,5.116,0,0,0,6.967-.348A4.528,4.528,0,0,0,1268.9,155.186Z"/></g></g></svg>