<svg xmlns="http://www.w3.org/2000/svg" xmlns:xlink="http://www.w3.org/1999/xlink" width="120" height="180" viewBox="0 0 120 180"><defs><style>.a{fill:none;}.b{clip-path:url(#a);}.c{fill:#594fb7;stroke:#fff;stroke-miterlimit:10;}.d,.e,.f{fill:#fff;}.e{opacity:0.2;}.f{font-size:12px;font-family:Roboto-Regular, Roboto;}.g{stroke:none;}</style><clipPath id="a"><rect class="a" width="120" height="180"/></clipPath></defs><g class="b"><g class="c"><rect class="g" width="120" height="180" rx="10"/><rect class="a" x="0.5" y="0.5" width="119" height="179" rx="9.5"/></g><g transform="translate(-22 -20)"><path class="d" d="M95.906,106.273,82,94.378l-13.906,11.9a7.648,7.648,0,0,0-.619,11.184,8.639,8.639,0,0,0,11.767.589l.891-.762a11.76,11.76,0,0,1-3.857,7.128l-.59.525a.394.394,0,0,0,.285.685H88.029a.394.394,0,0,0,.285-.685l-.59-.525a11.76,11.76,0,0,1-3.857-7.128l.891.762a8.64,8.64,0,0,0,11.767-.589A7.648,7.648,0,0,0,95.906,106.273Z"/></g><path class="e" d="M132,20H32A10,10,0,0,0,22,30v99.763L142,90.914V30A10,10,0,0,0,132,20Z" transform="translate(-22 -20)"/><g transform="translate(-22 -20)"><text class="f" transform="translate(123.938 56.316)"><tspan x="-3.914" y="0">A</tspan></text><path class="d" d="M129.427,36.268l-5.489-4.7-5.49,4.7a3.019,3.019,0,0,0-.244,4.415,3.411,3.411,0,0,0,4.645.232l.351-.3a4.636,4.636,0,0,1-1.522,2.813l-.233.208a.155.155,0,0,0,.113.27h4.759a.155.155,0,0,0,.113-.27l-.233-.208a4.636,4.636,0,0,1-1.522-2.813l.351.3a3.41,3.41,0,0,0,4.645-.232A3.019,3.019,0,0,0,129.427,36.268Z"/><text class="f" transform="translate(40.063 163.684) rotate(180)"><tspan x="-3.914" y="0">A</tspan></text><path class="d" d="M34.573,183.732l5.489,4.7,5.49-4.7a3.019,3.019,0,0,0,.244-4.415,3.411,3.411,0,0,0-4.645-.232l-.351.3a4.636,4.636,0,0,1,1.522-2.813l.233-.208a.155.155,0,0,0-.113-.27H37.683a.155.155,0,0,0-.113.27l.233.208a4.636,4.636,0,0,1,1.522,2.813l-.351-.3a3.41,3.41,0,0,0-4.645.232A3.019,3.019,0,0,0,34.573,183.732Z"/></g></g></svg>